<?xml version="1.0" encoding="iso-8859-1"?>
<!-- Generator: Adobe Illustrator 19.0.0, SVG Export Plug-In . SVG Version: 6.00 Build 0)  -->
<svg version="1.1" id="Layer_1" xmlns="http://www.w3.org/2000/svg" xmlns:xlink="http://www.w3.org/1999/xlink" x="0px" y="0px"
	 viewBox="0 0 512 512" style="enable-background:new 0 0 512 512;" xml:space="preserve">
<g>
	<g>
		<path d="M426.085,64.81H272.893c-47.374,0-85.916,38.541-85.916,85.916v9.168H85.915C38.541,159.894,0,198.435,0,245.809v58.357
			c0,43.338,32.255,79.283,74.019,85.094v46.033c0,4.499,2.54,8.614,6.562,10.632c1.687,0.847,3.514,1.265,5.333,1.265
			c2.516,0,5.018-0.798,7.112-2.359l73.431-54.749h72.649c47.374,0,85.916-38.541,85.916-85.915v-9.168h20.52l73.431,54.748
			c2.095,1.562,4.595,2.359,7.111,2.359c1.819,0,3.646-0.416,5.333-1.264c4.022-2.018,6.562-6.132,6.562-10.632v-46.032
			c41.763-5.812,74.02-41.759,74.02-85.095v-58.357C512,103.351,473.459,64.81,426.085,64.81z M301.231,304.166
			c0,34.255-27.869,62.123-62.124,62.123h-76.596c-2.562,0-5.056,0.827-7.111,2.359l-57.59,42.938v-33.401
			c0-6.57-5.327-11.896-11.896-11.896c-34.254,0-62.122-27.868-62.122-62.123v-58.357c0-34.255,27.868-62.124,62.123-62.124h101.063
			v25.397c0,47.374,38.541,85.916,85.916,85.916h28.337V304.166z M301.231,271.206h-28.337c-34.255,0-62.125-27.869-62.125-62.125
			v-25.397h28.337c34.255,0,62.124,27.869,62.124,62.124V271.206z M488.21,209.082h-0.001c0,34.255-27.869,62.125-62.124,62.125
			c-6.569,0-11.896,5.326-11.896,11.896v33.401l-57.59-42.938c-2.056-1.532-4.548-2.359-7.111-2.359h-24.466v-25.398
			c0-47.374-38.541-85.916-85.916-85.916h-28.336v-9.168c0-34.255,27.869-62.125,62.125-62.125h153.191
			c34.255,0,62.125,27.869,62.125,62.125V209.082z"/>
	</g>
</g>
<g>
</g>
<g>
</g>
<g>
</g>
<g>
</g>
<g>
</g>
<g>
</g>
<g>
</g>
<g>
</g>
<g>
</g>
<g>
</g>
<g>
</g>
<g>
</g>
<g>
</g>
<g>
</g>
<g>
</g>
</svg>
