<?xml version="1.0" standalone="no"?>
<!DOCTYPE svg PUBLIC "-//W3C//DTD SVG 20010904//EN"
 "http://www.w3.org/TR/2001/REC-SVG-20010904/DTD/svg10.dtd">
<svg version="1.0" xmlns="http://www.w3.org/2000/svg"
 width="450.000000pt" height="486.000000pt" viewBox="0 0 450.000000 486.000000"
 preserveAspectRatio="xMidYMid meet">
<metadata>
Created by potrace 1.10, written by Peter Selinger 2001-2011
</metadata>
<g transform="translate(0.000000,486.000000) scale(0.100000,-0.100000)"
fill="#000000" stroke="none">
<path d="M2387 4789 c-9 -5 -22 -7 -29 -3 -6 4 -8 3 -5 -3 4 -6 -7 -28 -24
-49 -33 -42 -83 -134 -73 -134 4 0 0 -7 -7 -17 -10 -12 -14 -49 -13 -137 0
-114 2 -126 33 -198 18 -43 37 -78 42 -78 5 0 9 -6 9 -13 0 -18 27 -51 89
-111 30 -28 63 -59 73 -68 10 -10 21 -18 24 -18 3 0 21 -12 40 -26 19 -15 34
-23 34 -18 0 4 5 3 12 -4 13 -13 48 1 48 20 0 6 -22 37 -50 69 -27 32 -50 63
-50 69 0 6 -4 9 -9 6 -8 -5 -45 40 -45 54 0 3 -8 14 -18 25 -25 26 -65 114
-97 210 -21 66 -25 95 -23 163 2 46 8 80 13 77 5 -4 6 0 3 8 -3 8 11 49 31 92
20 42 35 79 33 80 -7 7 -50 -65 -74 -122 -19 -47 -24 -76 -24 -152 0 -113 9
-146 74 -281 46 -93 68 -124 157 -223 39 -43 68 -81 65 -84 -10 -11 -86 34
-151 90 -124 105 -195 217 -216 341 -13 77 -6 211 12 232 6 8 9 14 5 14 -13 0
51 104 91 148 52 56 54 61 20 41z"/>
<path d="M1460 4717 c-8 -7 -16 -23 -18 -37 -1 -14 -5 -40 -8 -57 -3 -18 -1
-33 3 -33 5 0 8 -20 7 -44 -1 -25 6 -73 16 -108 22 -76 76 -209 88 -217 5 -3
12 -16 16 -28 4 -13 12 -23 17 -23 6 0 8 -4 5 -8 -3 -5 3 -15 12 -24 9 -9 28
-30 40 -47 32 -42 119 -128 162 -159 19 -14 40 -31 45 -36 27 -28 297 -162
317 -158 4 1 31 -7 60 -17 29 -11 71 -22 93 -25 22 -2 63 -8 90 -11 49 -6 133
-9 208 -6 29 1 40 6 46 23 7 20 3 24 -28 36 -20 7 -43 14 -51 16 -87 22 -109
30 -104 37 3 5 -2 6 -10 3 -8 -3 -34 1 -58 10 -23 8 -70 24 -103 36 -73 25
-207 90 -217 105 -4 5 -8 7 -8 2 0 -25 -215 126 -304 214 -36 36 -68 63 -71
61 -3 -3 -5 -1 -5 4 0 5 -16 27 -35 48 -19 22 -35 46 -35 53 0 7 -3 13 -7 13
-5 0 -21 28 -38 63 -16 34 -34 65 -40 69 -5 4 -7 8 -3 8 3 0 -4 35 -18 78 -13
42 -24 91 -24 109 0 17 -5 35 -10 38 -11 7 -7 -79 5 -130 27 -106 107 -260
170 -327 14 -15 25 -30 25 -33 0 -3 16 -20 37 -38 20 -18 46 -41 57 -52 44
-43 123 -104 176 -136 30 -18 57 -35 60 -39 3 -3 49 -27 103 -53 106 -52 186
-84 312 -123 44 -14 94 -29 111 -34 17 -6 40 -10 52 -10 11 0 24 -5 27 -10 4
-6 11 -8 16 -5 5 4 9 1 9 -4 0 -18 -165 -17 -290 0 -70 10 -107 19 -220 56
-58 19 -193 84 -202 98 -4 5 -8 6 -8 2 0 -4 -6 -3 -12 3 -7 5 -40 30 -74 54
-139 103 -273 267 -319 391 -5 11 -19 49 -32 85 -29 78 -45 289 -23 315 15 18
11 19 -10 2z"/>
<path d="M2066 4514 c-9 -8 -16 -24 -16 -34 0 -10 -3 -21 -8 -24 -8 -5 -6
-137 3 -176 11 -44 47 -114 84 -160 45 -57 161 -169 161 -155 0 3 25 -11 55
-30 30 -20 55 -33 55 -29 0 3 11 -1 24 -10 14 -9 40 -17 58 -18 27 -3 34 1 36
19 2 16 -11 32 -55 64 -32 24 -64 48 -72 54 -37 28 -156 153 -184 194 -56 81
-87 166 -90 251 -4 68 -20 86 -51 54z m30 -47 c1 -61 23 -157 36 -157 5 0 7
-4 4 -9 -6 -8 44 -92 70 -118 8 -8 14 -18 14 -22 0 -16 127 -135 205 -194 116
-86 114 -99 -8 -46 -40 17 -94 48 -122 67 -55 40 -146 132 -173 175 -9 15 -20
27 -25 27 -4 0 -5 5 -2 10 3 6 2 10 -3 10 -15 0 -36 103 -36 171 1 64 19 139
33 139 3 0 7 -24 7 -53z"/>
<path d="M1402 4093 c-13 -28 -2 -69 32 -118 11 -16 20 -31 18 -33 -14 -14
101 -143 195 -218 26 -22 50 -41 53 -44 3 -3 10 -6 17 -7 6 -1 28 -14 49 -28
20 -14 40 -25 45 -25 4 0 29 -10 56 -22 26 -12 54 -20 60 -19 7 1 21 -2 30 -8
10 -5 63 -18 119 -30 83 -18 122 -20 229 -16 71 3 134 10 139 15 6 6 22 10 38
10 42 0 76 19 71 40 -7 25 -41 38 -98 36 -28 -1 -66 1 -85 5 -19 4 -73 13
-119 18 -128 16 -323 75 -438 133 -56 28 -110 58 -121 68 -10 10 -27 20 -38
24 -32 10 -204 186 -204 208 0 4 -9 12 -20 18 -15 8 -21 7 -28 -7z m37 -25
c17 -44 151 -176 228 -226 100 -63 223 -124 293 -145 168 -48 200 -56 250 -63
30 -3 64 -8 75 -10 11 -3 71 -8 132 -13 62 -4 116 -11 120 -15 11 -11 -19 -26
-54 -26 -17 0 -34 -4 -37 -8 -13 -22 -312 -23 -371 -1 -11 4 -54 15 -95 24
-163 37 -284 108 -419 245 -93 95 -182 260 -141 260 6 0 14 -10 19 -22z"/>
<path d="M2975 4081 c-64 -16 -115 -50 -212 -142 -22 -21 -46 -39 -53 -39 -6
0 -9 -4 -5 -9 3 -5 -4 -12 -15 -16 -11 -3 -20 -11 -20 -16 0 -5 -7 -9 -15 -9
-19 0 -37 -34 -29 -55 7 -17 19 -17 81 -2 12 3 32 13 46 21 13 9 27 13 30 9 4
-3 7 0 7 7 0 7 3 11 6 8 3 -3 19 7 37 23 17 16 40 32 51 35 11 4 26 13 33 20
8 7 37 20 66 29 78 23 122 5 229 -97 26 -25 42 -45 35 -45 -29 -2 -133 -38
-151 -53 -54 -43 -111 -96 -115 -105 -1 -5 -19 -37 -38 -69 -19 -33 -43 -81
-53 -107 -42 -113 -168 -289 -206 -289 -8 0 -14 -4 -14 -10 0 -5 -4 -10 -9
-10 -6 0 -22 -11 -37 -25 -15 -14 -32 -25 -38 -25 -6 0 -23 -8 -36 -17 -14
-10 -33 -19 -42 -20 -9 -2 -32 -12 -49 -22 -18 -11 -36 -18 -41 -15 -4 3 -8 0
-8 -6 0 -6 -4 -9 -8 -6 -5 3 -32 -4 -61 -15 -29 -10 -56 -17 -61 -14 -5 3 -12
0 -15 -6 -4 -5 -13 -8 -21 -5 -7 3 -16 1 -19 -4 -4 -6 -11 -10 -16 -10 -6 0
-7 6 -3 13 6 9 5 9 -8 -1 -8 -6 -69 -26 -134 -42 -65 -17 -132 -35 -149 -42
-66 -25 -155 -71 -155 -79 0 -5 -6 -9 -13 -9 -7 0 -20 -8 -29 -17 -9 -10 -30
-30 -47 -45 -17 -15 -31 -31 -31 -36 0 -4 -13 -22 -29 -40 -17 -17 -28 -32
-25 -32 2 0 -5 -18 -16 -40 -11 -22 -18 -40 -16 -40 3 0 -6 -22 -19 -49 -14
-27 -24 -61 -23 -75 3 -35 18 -33 18 2 0 15 7 36 15 46 8 11 15 27 15 35 0 27
69 154 108 198 40 45 164 133 188 133 8 0 14 4 14 9 0 5 12 11 28 14 22 5 132
34 192 52 8 3 58 14 110 26 52 11 102 23 110 26 8 3 22 7 30 9 33 6 159 56
224 90 171 87 268 200 357 414 12 30 35 74 51 98 15 24 28 46 28 50 0 12 92
91 126 107 18 8 59 20 91 26 92 16 92 15 27 72 -32 29 -68 61 -79 73 -79 83
-202 75 -321 -22 -42 -35 -162 -94 -189 -94 -24 0 -17 13 21 40 20 14 70 57
111 95 102 96 157 126 228 126 104 0 136 -19 319 -195 44 -42 85 -76 92 -76 7
0 14 -3 16 -7 2 -5 20 -16 41 -25 63 -30 45 -38 -81 -38 -135 0 -202 -15 -269
-62 -24 -16 -51 -41 -60 -56 -10 -15 -20 -29 -23 -32 -4 -3 -14 -25 -24 -50
-10 -25 -24 -58 -31 -75 -8 -16 -26 -61 -41 -100 -15 -38 -38 -87 -51 -107
-12 -21 -23 -41 -23 -46 0 -21 -167 -164 -224 -191 -156 -74 -157 -74 -416
-132 -52 -11 -113 -25 -135 -30 -22 -5 -49 -11 -60 -13 -42 -9 -181 -59 -195
-71 -8 -7 -30 -20 -49 -30 -35 -18 -131 -110 -174 -167 -40 -53 -100 -169 -86
-166 8 2 19 14 26 27 7 13 25 45 39 72 15 27 31 46 37 42 6 -4 7 -1 3 6 -8 13
144 171 165 171 6 0 22 9 36 20 14 11 34 20 44 20 11 0 27 4 37 9 25 14 56 24
65 23 4 -1 7 2 7 7 0 5 15 11 33 15 49 9 66 13 147 31 103 24 164 34 173 28 4
-2 7 1 7 7 0 7 6 10 13 7 6 -2 23 1 37 8 14 7 45 16 70 20 25 4 53 14 63 23 9
8 17 12 17 9 0 -3 27 7 59 24 33 16 64 29 69 29 6 0 12 7 16 15 3 8 12 15 19
15 26 0 129 99 172 165 35 52 106 199 109 225 2 8 13 38 26 65 13 28 25 52 25
55 13 51 89 125 150 145 40 14 161 27 260 27 53 0 74 9 75 29 0 14 -52 57 -77
64 -25 6 -126 82 -131 98 -3 12 -122 121 -143 131 -10 5 -19 13 -19 17 0 5
-19 14 -42 20 -24 7 -49 17 -56 23 -10 7 -16 6 -22 -3 -5 -9 -10 -10 -14 -2
-8 12 -17 12 -61 2z"/>
<path d="M1554 3568 c-5 -17 1 -28 24 -49 17 -15 28 -30 24 -32 -4 -2 -2 -2 5
-1 6 2 21 -6 34 -17 12 -10 28 -19 36 -19 7 0 13 -5 13 -11 0 -5 5 -7 10 -4 6
3 10 1 10 -4 0 -6 9 -11 20 -11 11 0 37 -9 57 -20 20 -10 40 -17 45 -14 4 3 8
1 8 -3 0 -5 17 -10 39 -11 21 -2 51 -6 67 -11 32 -8 270 -6 324 4 45 9 152 44
166 56 6 5 13 6 16 4 3 -3 11 8 18 25 7 17 10 34 6 38 -4 3 -40 5 -79 2 -96
-5 -433 -3 -478 3 -64 9 -251 59 -293 78 -53 24 -63 24 -72 -3z m64 -14 c20
-10 42 -18 47 -20 6 -1 33 -10 60 -18 28 -9 100 -25 160 -37 98 -19 132 -20
310 -15 110 3 217 9 238 12 54 9 47 -11 -14 -42 -52 -26 -60 -28 -139 -45 -56
-12 -275 -15 -350 -5 -66 9 -188 50 -250 84 -117 65 -166 131 -62 86z"/>
<path d="M3443 3575 c-7 -8 -13 -18 -13 -23 0 -6 -7 -22 -14 -38 -8 -15 -13
-31 -11 -35 10 -15 -24 -28 -83 -30 -76 -3 -103 -24 -82 -64 7 -14 22 -27 32
-31 10 -3 15 -10 12 -16 -4 -6 -3 -8 3 -5 6 4 20 -4 33 -18 22 -24 22 -24 5
-78 -19 -61 -18 -85 6 -100 13 -8 28 -3 67 21 27 17 53 28 56 25 3 -4 6 -1 6
5 0 21 29 13 79 -23 53 -38 72 -43 91 -20 10 12 10 24 1 57 -16 57 -22 108
-13 108 12 0 112 99 112 110 0 6 -4 9 -9 6 -5 -3 -14 1 -21 9 -9 11 -32 15
-80 15 -66 0 -80 7 -84 42 -1 3 -4 9 -8 13 -3 4 -4 19 -2 33 3 15 2 23 -2 19
-4 -4 -13 2 -21 13 -16 23 -43 25 -60 5z m64 -80 l28 -75 82 0 c49 0 83 -4 83
-10 0 -5 -3 -10 -7 -10 -5 0 -33 -22 -63 -49 l-55 -49 22 -73 c12 -41 20 -75
18 -77 -2 -2 -36 17 -75 42 l-71 46 -65 -46 c-36 -25 -68 -43 -72 -40 -5 6 15
80 28 101 3 6 7 21 8 35 1 20 -11 34 -58 68 -33 24 -60 48 -60 52 0 5 37 10
82 12 l82 3 25 72 c15 40 29 73 33 73 4 0 19 -34 35 -75z"/>
<path d="M1108 3384 c-4 -3 -14 -7 -25 -9 -10 -2 -18 -4 -18 -5 0 -1 -10 -3
-22 -6 -12 -2 -38 -13 -57 -24 -20 -11 -36 -17 -36 -13 0 3 -8 -1 -17 -9 -10
-9 -42 -28 -72 -43 -29 -15 -59 -31 -65 -36 -174 -142 -282 -273 -358 -434
-16 -36 -33 -65 -37 -65 -4 0 -7 -8 -8 -17 -1 -10 -13 -44 -27 -76 -14 -31
-32 -85 -40 -120 -8 -34 -21 -89 -30 -122 -8 -33 -20 -98 -26 -145 -6 -47 -13
-98 -15 -115 -15 -111 1 -395 30 -535 9 -41 17 -82 19 -90 1 -9 5 -20 8 -25 3
-6 9 -26 13 -45 10 -53 25 -99 52 -158 12 -29 23 -61 23 -72 0 -10 6 -25 13
-32 7 -7 26 -38 41 -68 72 -144 117 -200 137 -169 13 20 11 29 -12 95 -11 32
-22 64 -23 69 -1 6 -10 33 -19 61 -10 29 -17 56 -16 60 1 5 0 16 -4 24 -3 8
-9 29 -13 45 -4 17 -9 37 -11 45 -2 8 -6 32 -8 53 -3 21 -7 42 -10 46 -9 15
-26 144 -31 236 -12 204 -8 595 6 595 3 0 6 28 8 62 2 34 6 67 10 73 3 5 8 17
9 25 6 38 10 58 22 100 24 86 34 115 44 129 6 7 12 18 14 25 1 6 5 25 8 41 3
17 10 32 16 33 5 2 9 10 9 18 0 13 57 123 70 134 3 3 17 23 32 45 88 128 235
269 262 250 3 -3 4 -2 1 1 -2 4 1 11 8 18 16 15 152 86 165 86 18 0 92 53 86
62 -6 9 -97 11 -106 2z m57 -25 c-70 -29 -84 -36 -134 -64 -24 -14 -50 -25
-58 -25 -7 0 -13 -4 -13 -9 0 -6 -19 -21 -42 -35 -53 -31 -180 -155 -220 -215
-18 -25 -36 -49 -42 -53 -6 -4 -8 -8 -4 -8 3 0 -16 -37 -43 -82 -27 -44 -49
-85 -49 -89 0 -4 -5 -20 -12 -36 -6 -15 -12 -30 -13 -33 -1 -3 -7 -18 -14 -35
-7 -16 -19 -54 -26 -83 -8 -29 -16 -56 -19 -60 -8 -14 -34 -149 -47 -247 -16
-119 -17 -556 -1 -665 12 -85 14 -95 31 -200 9 -61 66 -284 80 -315 33 -72 53
-171 30 -148 -12 12 -56 92 -101 183 -17 36 -34 67 -37 70 -4 3 -15 32 -25 65
-11 33 -23 65 -28 71 -8 11 -54 174 -69 242 -28 135 -53 510 -36 539 2 4 8 42
12 83 13 133 71 387 96 417 6 6 8 17 4 23 -3 5 -1 10 4 10 6 0 11 6 11 13 0
19 88 196 116 233 13 17 24 34 24 39 0 4 32 45 71 91 81 95 197 193 264 223
25 11 45 25 45 30 0 6 6 11 14 11 7 0 40 12 72 27 64 28 144 51 184 52 18 0
11 -5 -25 -20z"/>
<path d="M893 3091 c-60 -61 -121 -131 -137 -160 -5 -9 -17 -23 -26 -31 -14
-13 -28 -39 -30 -55 0 -3 -12 -26 -27 -52 -40 -73 -40 -73 -73 -161 -28 -75
-56 -167 -65 -217 -39 -202 -45 -266 -46 -505 0 -212 1 -225 25 -350 8 -41 17
-91 21 -110 3 -19 15 -63 25 -97 11 -34 20 -71 20 -81 0 -10 3 -22 8 -26 4 -4
7 -11 8 -14 0 -4 8 -25 18 -47 10 -22 24 -56 31 -75 43 -116 187 -361 248
-422 9 -10 17 -21 17 -26 0 -15 228 -240 276 -272 27 -18 54 -38 59 -44 14
-15 116 -82 138 -89 9 -4 17 -10 17 -15 0 -5 13 -12 29 -15 16 -3 35 -13 43
-21 22 -22 88 -32 99 -15 14 23 12 26 -51 70 -33 23 -60 46 -60 51 0 5 -8 12
-17 15 -40 15 -229 204 -303 302 -14 18 -36 47 -50 65 -28 35 -100 143 -100
151 0 2 -18 35 -41 71 -22 37 -41 75 -42 85 -1 10 -4 16 -7 14 -3 -2 -10 8
-17 21 -6 13 -8 22 -3 19 4 -3 10 2 13 10 4 9 1 12 -8 8 -11 -3 -24 14 -45 63
-17 37 -32 74 -33 83 -2 9 -8 25 -14 36 -15 28 -76 223 -77 249 -1 11 -4 23
-8 26 -4 3 -9 17 -11 30 -3 14 -10 45 -16 70 -29 119 -40 260 -37 475 3 189 7
251 20 335 11 69 20 99 26 95 5 -3 6 4 3 14 -3 11 2 34 11 52 9 18 16 36 16
40 0 4 4 18 9 31 5 13 10 28 11 33 15 54 135 265 151 265 5 0 9 6 9 14 0 7 14
27 30 45 17 17 27 31 23 31 -5 1 1 8 12 18 23 19 39 52 26 52 -5 0 -15 -10
-24 -22 -8 -13 -33 -43 -55 -66 -22 -24 -48 -58 -57 -75 -9 -18 -29 -52 -45
-77 -34 -53 -80 -148 -80 -164 0 -7 -4 -16 -9 -22 -14 -15 -78 -253 -87 -324
-5 -36 -9 -166 -9 -290 0 -222 12 -365 39 -465 7 -27 21 -84 31 -125 10 -41
21 -79 24 -85 3 -5 6 -12 6 -15 3 -21 42 -135 61 -181 13 -31 24 -61 24 -65 0
-16 136 -279 168 -327 18 -25 32 -50 32 -56 0 -6 5 -11 10 -11 6 0 14 -10 19
-23 9 -21 80 -117 112 -150 8 -8 32 -36 54 -62 22 -27 45 -53 52 -59 40 -38
155 -144 174 -162 13 -11 50 -38 81 -59 32 -21 55 -41 53 -46 -12 -18 -188 76
-310 166 -194 143 -394 364 -477 525 -13 25 -25 47 -28 50 -13 12 -102 205
-115 250 -4 14 -11 30 -15 35 -8 10 -46 145 -56 199 -3 16 -10 39 -14 52 -5
12 -16 76 -25 142 -13 94 -16 172 -12 349 5 237 16 349 43 443 8 30 18 69 20
85 3 17 9 39 13 50 5 11 21 54 37 95 80 208 219 408 344 493 23 16 23 17 4 17
-13 0 -46 -25 -81 -59z"/>
<path d="M4134 3035 c-12 -13 -20 -26 -18 -28 2 -2 -8 -21 -22 -43 -15 -21
-19 -32 -10 -25 21 17 21 7 0 -13 -10 -10 -33 -16 -65 -16 -59 0 -113 -24
-105 -46 3 -9 6 -20 6 -25 0 -5 3 -8 8 -6 4 1 17 -6 28 -17 65 -56 74 -67 68
-78 -4 -6 -12 -37 -19 -67 -11 -53 -10 -58 9 -72 19 -13 24 -13 53 2 18 9 30
19 27 22 -4 3 10 13 31 21 33 14 39 14 63 -1 15 -10 29 -20 32 -23 3 -3 20
-13 38 -23 59 -33 77 9 47 109 l-15 49 27 22 c16 12 43 34 61 49 17 14 32 32
32 40 0 15 -16 19 -22 6 -1 -4 -31 -29 -65 -56 -35 -27 -63 -49 -63 -50 0 -1
5 -17 11 -36 28 -94 33 -120 21 -120 -6 0 -14 5 -17 10 -4 6 -24 19 -45 30
-21 11 -45 26 -53 35 -14 14 -21 12 -71 -20 -30 -19 -57 -39 -61 -45 -9 -15
-25 -12 -25 4 0 7 9 42 20 77 l21 64 -24 20 c-14 11 -41 33 -61 48 -20 15 -36
32 -36 37 0 5 35 10 77 12 86 3 84 1 119 101 19 53 31 59 40 20 4 -16 10 -32
13 -38 3 -5 11 -26 16 -45 l11 -35 72 -5 c41 -3 83 -1 95 4 22 9 22 9 -3 16
-14 5 -46 8 -72 9 -67 1 -75 7 -94 64 -15 49 -39 87 -53 87 -3 0 -16 -11 -27
-25z"/>
<path d="M2755 3001 c-3 -6 -11 -8 -17 -5 -6 4 -8 3 -5 -2 3 -6 -3 -29 -13
-52 -20 -44 -18 -43 -102 -45 -15 -1 -25 -4 -22 -8 2 -4 -3 -9 -11 -13 -22 -8
-18 -42 8 -60 59 -41 61 -44 46 -63 -12 -14 -12 -16 0 -8 11 6 13 4 7 -11 -29
-70 -8 -122 41 -103 14 5 39 19 56 31 17 12 27 16 22 7 -7 -12 -6 -12 7 -1 9
7 18 9 20 5 5 -12 81 -50 98 -49 11 1 15 13 14 51 0 28 -4 57 -8 66 -5 11 7
30 39 63 40 41 44 50 33 64 -20 26 -30 31 -52 26 -45 -9 -74 6 -90 47 -9 22
-14 44 -12 48 3 4 0 8 -7 8 -7 0 -19 4 -28 7 -10 4 -20 2 -24 -3z m45 -74 c0
-10 11 -29 25 -43 21 -21 34 -25 73 -24 26 1 51 1 56 1 4 -1 -15 -20 -43 -43
-43 -36 -50 -47 -45 -68 3 -14 8 -33 10 -43 2 -10 6 -27 9 -38 9 -28 -11 -24
-65 15 l-48 34 -48 -34 c-55 -39 -81 -45 -64 -14 6 11 8 20 6 20 -3 0 2 19 10
43 15 41 14 42 -8 57 -42 28 -79 62 -73 68 3 3 16 7 28 7 12 1 41 2 65 3 29 1
42 6 42 16 0 8 9 36 21 63 l21 48 13 -25 c8 -14 14 -33 15 -43z"/>
<path d="M4230 2946 c0 -2 8 -10 18 -17 15 -13 16 -12 3 4 -13 16 -21 21 -21
13z"/>
<path d="M1496 2926 c-23 -21 -57 -37 -66 -31 -6 3 -7 -1 -4 -9 3 -9 -6 -21
-25 -32 -17 -10 -31 -22 -31 -27 0 -4 -5 -5 -12 -1 -6 4 -8 3 -5 -3 4 -6 -3
-22 -16 -35 -66 -74 -85 -101 -118 -169 -20 -41 -40 -86 -43 -101 -4 -16 -11
-28 -17 -28 -6 0 -8 -4 -5 -8 3 -5 -1 -27 -9 -49 -14 -39 -18 -65 -29 -183
-15 -141 6 -374 39 -453 8 -19 11 -38 7 -41 -3 -4 -1 -10 5 -14 6 -4 13 -18
14 -32 2 -14 10 -31 17 -38 7 -8 10 -17 7 -22 -3 -4 2 -13 10 -20 8 -7 15 -19
15 -26 0 -8 11 -32 25 -54 14 -22 22 -40 18 -40 -5 0 -3 -4 3 -8 5 -4 20 -23
32 -42 12 -19 33 -48 47 -64 14 -16 25 -32 25 -35 0 -10 60 -75 60 -65 0 5 7
-2 16 -15 27 -38 140 -141 156 -141 4 0 8 -8 8 -17 0 -9 3 -14 6 -10 6 5 121
-53 154 -78 18 -14 213 -91 255 -100 17 -4 46 -9 65 -11 60 -6 81 -14 73 -27
-5 -9 -3 -9 8 -1 16 14 229 15 229 2 0 -5 10 -3 23 4 12 7 27 13 32 14 27 2
92 16 110 23 11 5 33 14 48 20 16 6 33 9 38 6 5 -4 9 -2 9 4 0 6 18 16 40 22
21 7 37 15 35 20 -3 4 3 10 13 13 53 17 235 193 244 237 2 7 10 21 18 31 17
21 69 148 80 196 6 25 5 35 -7 39 -19 8 -65 -18 -59 -33 3 -7 -6 -25 -20 -41
-36 -41 -44 -52 -44 -57 0 -3 -11 -22 -25 -42 -14 -20 -25 -34 -25 -30 0 3
-16 -12 -36 -34 -20 -22 -41 -37 -47 -33 -5 3 -7 2 -4 -4 4 -5 -6 -16 -21 -24
-15 -8 -33 -20 -40 -26 -7 -7 -22 -13 -33 -13 -10 0 -18 -6 -17 -12 2 -7 -5
-12 -14 -10 -10 2 -18 -1 -18 -6 0 -9 -97 -40 -155 -50 -44 -7 -274 -7 -315 1
-19 3 -46 8 -60 11 -14 3 -41 9 -60 12 -19 4 -44 12 -55 17 -11 6 -22 12 -25
12 -33 7 -93 31 -108 44 -10 9 -24 17 -31 19 -41 9 -82 33 -75 43 4 7 3 9 -4
6 -16 -11 -44 4 -38 20 3 8 1 11 -4 8 -8 -5 -86 37 -100 54 -3 3 -21 18 -40
33 -45 34 -90 74 -90 80 0 2 -24 30 -54 63 -30 32 -53 62 -50 67 3 4 0 8 -6 8
-6 0 -13 8 -17 18 -4 9 -18 35 -32 57 -29 44 -48 84 -79 160 -60 149 -69 432
-18 594 14 47 32 88 39 93 6 4 9 8 5 8 -12 0 30 88 77 162 51 78 143 180 156
173 4 -3 11 0 15 6 5 8 3 9 -6 4 -10 -6 -12 -2 -7 15 6 22 5 22 -13 4 -11 -11
-25 -24 -32 -30 -13 -11 -27 -27 -90 -105 -38 -47 -138 -230 -138 -253 0 -7
-7 -26 -15 -42 -57 -116 -59 -467 -3 -602 6 -15 12 -29 13 -32 67 -181 187
-346 350 -480 132 -109 369 -223 536 -257 108 -22 419 -22 419 0 0 4 8 7 18 7
25 0 121 35 135 49 6 6 15 11 20 11 18 0 132 88 174 134 40 44 89 114 129 184
10 17 22 32 26 32 24 0 -53 -183 -114 -273 -40 -60 -154 -177 -171 -177 -5 0
-23 -11 -40 -24 -35 -26 -120 -66 -179 -85 -74 -24 -145 -33 -258 -35 -160 -1
-284 21 -425 79 -112 45 -107 43 -136 63 -14 9 -51 32 -82 51 -144 84 -345
307 -414 456 -10 22 -22 43 -26 46 -5 3 -9 10 -9 15 0 5 -5 20 -10 34 -23 58
-66 220 -77 288 -6 40 -11 117 -11 172 0 101 24 294 38 314 5 6 14 31 22 56
16 53 75 172 104 209 48 59 174 178 203 190 17 7 34 18 36 25 6 16 -20 17 -37
2z"/>
<path d="M1660 2875 c-96 -60 -168 -126 -197 -178 -7 -12 -12 -17 -13 -12 0
18 -103 -181 -106 -205 0 -8 -5 -26 -9 -40 -9 -28 -10 -35 -24 -135 -11 -77
-13 -154 -7 -200 14 -107 36 -206 48 -220 4 -5 8 -15 8 -23 0 -20 100 -222
110 -222 5 0 19 -19 33 -43 39 -66 154 -176 222 -214 95 -51 165 -82 198 -87
21 -3 47 -11 57 -16 11 -6 32 -10 47 -10 15 0 37 0 48 0 81 0 115 2 115 9 0 5
20 11 45 14 59 9 180 68 228 112 21 19 42 35 47 35 15 0 22 40 10 55 -10 12
-17 12 -48 -4 -34 -17 -110 -44 -122 -44 -3 0 -27 -7 -55 -17 -36 -12 -77 -16
-145 -14 -110 4 -123 5 -170 26 -19 8 -52 20 -72 27 -21 7 -38 17 -38 22 0 6
-4 8 -9 4 -6 -3 -13 1 -18 8 -4 8 -18 19 -31 26 -12 7 -20 17 -16 23 4 6 3 8
-3 5 -16 -10 -107 86 -162 170 -28 43 -55 83 -60 89 -5 6 -12 21 -16 35 -4 13
-17 42 -30 64 -19 34 -36 86 -37 112 0 5 -4 13 -9 20 -21 24 -34 323 -16 335
9 6 9 8 -1 8 -9 0 -10 5 -4 18 5 9 14 43 21 75 7 31 16 57 21 57 5 0 7 6 4 14
-3 7 2 20 10 29 8 8 14 16 12 18 -7 8 71 114 82 112 7 -2 9 4 5 14 -5 12 -3
14 8 8 8 -4 11 -4 6 0 -4 5 14 28 40 52 84 77 91 86 86 100 -5 13 -8 12 -16
-3 -6 -11 -22 -28 -36 -39 -82 -63 -231 -268 -231 -317 0 -9 -4 -19 -9 -23 -6
-3 -10 -13 -10 -23 0 -9 -5 -42 -12 -72 -15 -74 -7 -305 13 -351 9 -19 21 -54
28 -79 28 -103 157 -320 222 -375 15 -13 28 -28 28 -33 0 -5 11 -15 25 -22 14
-7 25 -17 25 -21 0 -11 111 -77 161 -95 143 -52 240 -57 378 -20 88 24 122 37
168 66 31 20 41 5 12 -20 -54 -46 -174 -123 -206 -131 -18 -5 -50 -14 -70 -20
-48 -13 -232 -19 -239 -8 -3 5 -18 9 -33 9 -15 0 -31 3 -35 7 -3 4 -16 8 -26
10 -11 2 -48 17 -82 34 -119 60 -197 126 -286 240 -50 64 -142 234 -142 262 0
8 -7 28 -16 46 -40 79 -54 339 -25 466 21 95 66 218 81 223 5 2 10 9 10 16 0
38 153 196 238 244 34 20 62 40 62 44 0 14 -15 9 -70 -27z"/>
<path d="M2127 2779 c-9 -5 -31 -8 -47 -5 -17 2 -28 0 -24 -5 5 -9 -3 -11 -43
-12 -12 0 -20 -4 -17 -8 3 -5 -5 -9 -18 -9 -13 0 -30 -6 -36 -12 -7 -7 -16
-13 -20 -13 -4 -1 -17 -6 -28 -13 -12 -6 -25 -8 -29 -4 -5 4 -6 2 -2 -3 3 -6
-21 -28 -53 -49 -33 -22 -57 -42 -55 -46 2 -4 -10 -21 -28 -37 -34 -32 -45
-47 -63 -79 -56 -102 -72 -138 -82 -184 -7 -36 -8 -277 0 -330 3 -25 6 -49 7
-53 1 -5 5 -6 10 -3 5 4 7 -4 3 -16 -4 -16 -2 -19 8 -13 10 6 12 2 8 -18 -3
-18 -1 -24 8 -20 9 3 12 -2 9 -16 -2 -12 0 -19 5 -16 4 3 22 -19 38 -47 17
-29 42 -61 56 -72 14 -10 23 -22 20 -27 -3 -5 -1 -9 4 -9 9 0 33 -18 108 -79
7 -6 15 -7 18 -4 3 4 6 1 6 -5 0 -7 3 -11 8 -10 4 1 20 -4 35 -10 16 -7 33
-12 38 -12 6 0 7 -5 4 -11 -4 -6 -1 -9 6 -8 25 4 99 -13 94 -22 -3 -4 65 -7
152 -6 114 2 158 6 161 15 2 6 13 12 23 12 11 0 40 11 64 24 24 14 46 22 49
19 3 -4 6 -1 6 5 0 7 7 12 15 12 8 0 15 5 15 10 0 6 8 10 19 10 10 0 28 13 41
30 12 16 27 28 33 27 6 -1 11 3 12 8 0 9 34 51 76 95 8 9 13 22 11 30 -3 8 0
10 8 5 9 -5 11 -4 6 3 -4 7 -3 12 1 12 5 0 15 16 22 35 7 19 16 33 20 31 4 -3
8 7 9 22 1 14 6 28 10 31 5 3 8 15 9 26 0 11 4 40 8 65 5 25 9 75 9 113 0 37
4 67 8 67 4 0 8 5 8 11 0 5 -6 7 -12 3 -8 -5 -7 0 2 11 9 11 10 16 3 11 -8 -4
-13 -2 -14 6 0 7 -3 22 -6 33 -3 11 -5 33 -4 48 0 15 -4 25 -9 22 -6 -4 -10 7
-10 24 0 20 -5 30 -12 29 -8 -2 -12 6 -11 17 1 11 -5 23 -12 28 -8 4 -12 14
-9 21 3 8 0 17 -7 22 -8 4 -10 3 -5 -4 4 -7 5 -12 3 -12 -6 0 -51 72 -51 82
-1 3 -5 10 -10 15 -5 5 -6 2 -2 -7 4 -8 0 -6 -8 4 -9 11 -16 24 -16 29 0 4 -4
5 -10 2 -5 -3 -10 -1 -10 5 0 12 -47 54 -62 56 -5 1 -11 2 -15 3 -5 1 -3 5 4
9 7 4 -15 17 -53 32 -35 13 -59 27 -53 31 7 4 5 9 -6 13 -23 8 -27 8 -21 -3 4
-5 -3 -7 -14 -4 -11 3 -17 9 -14 14 3 5 -3 8 -13 7 -32 -2 -54 2 -50 10 3 4
-34 8 -81 10 -48 1 -98 4 -112 7 -14 3 -33 0 -43 -6z m213 -33 c219 -39 425
-241 477 -468 10 -42 10 -220 1 -275 -9 -53 -66 -193 -79 -193 -5 0 -9 -7 -9
-15 0 -9 -35 -50 -77 -93 -130 -129 -270 -186 -453 -185 -173 1 -306 59 -436
189 -116 118 -172 258 -172 432 0 169 58 313 172 428 103 103 222 168 331 181
22 2 42 7 45 10 5 5 156 -3 200 -11z"/>
<path d="M1989 2578 c-2 -33 -5 -54 -18 -133 -17 -108 -21 -127 -32 -148 -19
-35 -20 -41 -42 -487 -2 -52 -8 -112 -12 -133 l-8 -37 209 2 209 3 -3 32 c-3
32 21 93 38 93 9 0 23 -56 24 -100 1 -25 2 -25 94 -28 l92 -3 0 80 c0 44 -4
83 -10 86 -5 3 -10 28 -10 55 l0 49 -47 3 c-46 3 -48 4 -45 30 2 17 -6 40 -21
60 -31 42 -77 129 -77 146 0 7 -4 10 -10 7 -5 -3 -10 -14 -10 -24 0 -9 -20
-50 -45 -90 -26 -42 -45 -85 -45 -102 0 -28 -1 -29 -50 -29 -27 0 -53 0 -57 0
-5 0 -11 62 -15 137 -3 76 -8 147 -10 158 -15 71 -21 92 -32 110 -7 11 -16 49
-20 85 -4 36 -9 72 -10 80 -1 8 -6 39 -11 68 -8 53 -24 71 -26 30z m20 -145
c0 -25 -1 -25 -8 -8 -5 11 -7 23 -4 28 8 14 13 7 12 -20z m7 -77 c-1 -24 1
-43 4 -41 6 4 24 -17 27 -32 2 -7 5 -29 8 -50 18 -121 16 -131 -20 -107 -16
10 -25 12 -30 4 -5 -8 -11 -8 -19 -1 -15 12 -40 -11 -49 -44 -4 -11 -4 7 -1
40 8 108 15 144 29 172 8 15 15 42 15 59 0 33 6 44 25 44 7 0 11 -17 11 -44z
m-30 -311 c-3 -9 -10 -13 -16 -10 -12 7 -14 68 -2 79 10 11 26 -49 18 -69z
m54 30 c0 -19 -4 -37 -10 -40 -6 -4 -10 12 -10 40 0 28 4 44 10 40 6 -3 10
-21 10 -40z m299 -36 c-6 -12 -5 -20 1 -24 6 -4 9 -2 8 3 -2 6 0 10 5 11 4 1
7 -1 7 -4 -1 -3 6 -13 15 -21 8 -9 15 -22 15 -30 0 -8 5 -12 10 -9 13 8 8 -18
-5 -27 -6 -5 -5 -8 2 -8 7 0 10 -7 7 -15 -4 -9 0 -15 10 -15 9 0 16 -5 16 -11
0 -6 9 -9 20 -6 13 3 25 -2 35 -16 13 -19 12 -24 -11 -54 -14 -18 -22 -38 -18
-45 4 -6 3 -8 -4 -4 -5 3 -12 0 -15 -6 -3 -10 -9 -8 -24 4 -14 13 -22 15 -30
7 -9 -9 -16 -7 -28 5 -20 20 -39 20 -59 1 -8 -8 -22 -12 -31 -9 -39 15 -66
-54 -35 -91 12 -14 11 -14 -54 -6 -6 0 -3 7 6 14 21 15 24 32 15 79 -11 51
-37 65 -67 33 -12 -13 -19 -28 -15 -34 3 -6 0 -14 -8 -17 -13 -5 -13 -9 -1
-32 8 -15 14 -31 14 -37 0 -10 -171 -10 -196 -1 -6 2 -9 21 -8 43 1 21 5 85 9
143 4 58 6 125 5 150 l-1 44 24 -28 c20 -23 25 -25 30 -12 4 9 13 13 22 10 8
-3 13 -9 11 -13 -2 -3 6 -6 19 -6 13 0 22 2 20 5 -2 3 0 12 6 20 6 10 9 -3 9
-41 0 -42 5 -63 21 -83 18 -23 25 -26 76 -22 31 2 59 10 63 17 6 8 13 2 24
-19 21 -41 50 -57 66 -37 8 10 21 13 38 8 18 -4 23 -2 18 6 -4 6 -11 9 -15 6
-10 -5 -1 46 9 60 5 6 -7 11 -31 12 -37 2 -40 0 -46 -27 -3 -17 -9 -30 -14
-30 -13 0 -11 24 3 38 6 6 8 15 4 19 -4 5 -14 -1 -22 -12 -14 -19 -14 -18 -11
15 4 40 26 90 39 90 5 0 6 -6 2 -12 -4 -7 -3 -10 1 -5 5 4 10 17 12 29 2 12 9
25 15 30 17 10 29 -12 17 -33z m-1 -146 c-4 -22 -22 -20 -26 1 -2 10 3 16 13
16 10 0 15 -7 13 -17z m-168 -153 c0 -37 -4 -50 -14 -50 -22 0 -27 15 -20 59
10 61 34 54 34 -9z m338 -3 c2 -36 0 -47 -11 -47 -20 0 -27 22 -20 65 8 50 27
38 31 -18z m-238 -23 c0 -15 -6 -24 -15 -24 -15 0 -21 40 -9 53 12 11 24 -3
24 -29z m138 3 c2 -19 -1 -27 -12 -27 -11 0 -16 10 -16 31 0 38 24 35 28 -4z
m42 -7 c0 -5 -2 -10 -4 -10 -3 0 -8 5 -11 10 -3 6 -1 10 4 10 6 0 11 -4 11
-10z m8 -32 c-6 -18 -28 -21 -28 -4 0 9 7 16 16 16 9 0 14 -5 12 -12z"/>
<path d="M1990 2371 c0 -6 4 -13 10 -16 6 -3 7 1 4 9 -7 18 -14 21 -14 7z"/>
<path d="M1968 2202 c6 -30 29 -39 48 -20 22 22 7 47 -25 45 -23 -2 -27 -6
-23 -25z m42 4 c0 -8 -4 -18 -10 -21 -5 -3 -10 3 -10 14 0 12 5 21 10 21 6 0
10 -6 10 -14z"/>
<path d="M2326 1997 c3 -10 9 -15 12 -12 3 3 0 11 -7 18 -10 9 -11 8 -5 -6z"/>
<path d="M1944 1915 c-6 -15 2 -35 14 -35 4 0 13 4 21 9 12 8 12 12 2 25 -17
20 -30 20 -37 1z m23 -17 c-3 -8 -6 -5 -6 6 -1 11 2 17 5 13 3 -3 4 -12 1 -19z"/>
<path d="M2370 1894 c0 -14 4 -23 10 -19 6 3 10 15 10 26 0 10 -4 19 -10 19
-5 0 -10 -12 -10 -26z"/>
<path d="M1951 1807 c-14 -14 -14 -62 1 -86 16 -26 34 -7 40 41 4 40 -19 67
-41 45z m16 -69 c-2 -13 -4 -3 -4 22 0 25 2 35 4 23 2 -13 2 -33 0 -45z"/>
<path d="M2018 1784 c-18 -37 -17 -54 4 -67 12 -8 21 -7 32 2 21 18 20 44 -3
72 l-18 23 -15 -30z m31 -41 c1 -7 -3 -13 -9 -13 -5 0 -10 15 -9 33 0 27 2 29
9 12 5 -11 9 -26 9 -32z"/>
<path d="M771 2398 c-22 -36 -38 -204 -36 -388 3 -185 14 -291 46 -430 10 -47
22 -96 25 -109 3 -13 9 -32 15 -43 5 -10 6 -18 2 -18 -4 0 -2 -5 4 -11 6 -6 9
-18 6 -27 -5 -11 -3 -13 7 -7 8 5 11 4 6 -3 -3 -6 5 -35 18 -66 13 -30 22 -57
18 -60 -3 -3 0 -6 6 -6 7 0 12 -7 12 -15 0 -8 18 -51 39 -94 22 -44 36 -83 33
-87 -4 -4 -2 -4 5 -1 7 5 14 -4 18 -23 4 -16 10 -30 14 -30 4 0 19 -23 35 -51
15 -28 32 -56 37 -63 5 -6 28 -36 50 -66 57 -79 83 -108 185 -212 117 -119
137 -137 206 -185 32 -22 54 -44 50 -47 -4 -4 -2 -6 3 -5 11 3 71 -26 95 -46
31 -26 239 -125 263 -125 9 0 17 -4 17 -10 0 -5 16 -12 35 -16 19 -3 35 -10
35 -16 0 -5 4 -7 10 -3 5 3 17 1 27 -4 20 -11 74 -25 85 -23 4 1 18 -2 30 -7
13 -4 32 -5 43 0 18 7 19 8 1 8 -22 1 -247 70 -261 81 -5 4 -32 15 -60 25 -27
10 -58 26 -69 34 -10 9 -20 15 -22 13 -5 -3 -96 39 -104 48 -3 3 -27 19 -55
35 -145 82 -341 257 -442 393 -16 20 -31 41 -36 47 -41 53 -77 106 -93 135
-10 19 -24 40 -30 47 -6 6 -36 63 -66 125 -84 171 -98 204 -98 222 0 9 -4 16
-9 16 -4 0 -11 15 -14 33 -4 17 -16 64 -27 102 -46 159 -56 222 -70 434 -15
228 8 511 42 511 9 0 9 3 13 -175 2 -71 9 -164 15 -205 6 -41 13 -88 15 -105
8 -64 57 -298 65 -314 5 -9 19 -52 31 -96 12 -44 25 -84 29 -90 4 -5 16 -37
28 -70 26 -77 84 -206 99 -223 6 -6 15 -22 19 -34 3 -12 22 -45 40 -74 19 -29
34 -57 34 -63 0 -5 6 -16 13 -23 7 -7 21 -27 32 -44 11 -17 32 -47 47 -65 15
-19 51 -63 79 -99 50 -62 212 -230 222 -230 3 0 20 -13 37 -29 47 -42 59 -51
140 -105 41 -27 86 -57 100 -66 14 -10 44 -27 65 -37 22 -11 63 -32 90 -47 28
-14 54 -26 59 -26 5 0 17 -6 25 -14 9 -7 36 -20 61 -29 25 -8 54 -18 65 -23
18 -7 18 -6 6 9 -7 9 -18 17 -24 17 -15 0 -141 63 -149 75 -4 6 -8 7 -8 2 0
-10 -195 93 -210 112 -6 7 -40 29 -60 38 -8 4 -17 9 -20 12 -3 4 -31 24 -64
46 -32 22 -65 49 -72 60 -8 11 -14 15 -14 10 0 -5 -51 42 -113 105 -112 114
-197 218 -197 241 0 7 -3 9 -7 6 -3 -4 -13 3 -22 16 -9 12 -13 22 -11 23 3 0
-2 8 -10 17 -31 33 -38 44 -45 68 -4 13 -18 38 -30 54 -35 45 -126 231 -155
315 -7 19 -16 44 -20 55 -26 64 -87 265 -93 310 -3 17 -12 57 -20 90 -8 33
-18 83 -21 110 -3 28 -10 82 -16 120 -6 39 -13 137 -15 218 -3 82 -7 153 -10
158 -11 16 -40 10 -54 -13z"/>
<path d="M1033 2387 c-28 -59 -34 -87 -44 -181 -10 -103 -12 -265 -4 -324 13
-97 16 -119 21 -135 4 -11 8 -29 9 -40 14 -83 136 -387 156 -387 4 0 13 -16
19 -35 6 -19 15 -35 18 -35 4 0 13 -13 20 -28 6 -16 20 -37 30 -48 21 -24 62
-82 62 -87 0 -4 41 -49 146 -159 30 -32 59 -58 64 -58 6 0 9 -5 7 -11 -1 -6
13 -19 30 -28 18 -10 30 -21 26 -25 -3 -3 -2 -6 4 -6 6 0 36 -20 67 -44 31
-24 70 -49 86 -56 16 -7 27 -17 23 -22 -3 -6 0 -9 8 -6 8 3 19 0 26 -6 34 -30
43 -36 58 -36 8 0 15 -5 15 -11 0 -5 5 -7 10 -4 6 3 10 2 10 -3 0 -5 21 -17
48 -27 26 -10 65 -27 87 -38 22 -12 45 -20 51 -19 7 1 32 -7 58 -17 25 -11 46
-18 46 -16 0 3 12 0 28 -6 15 -6 36 -13 47 -14 11 -2 34 -6 50 -10 127 -28
441 -32 567 -8 40 8 81 12 91 9 9 -2 15 0 11 5 -3 5 1 10 8 11 7 0 18 2 23 2
6 1 16 5 23 9 6 5 12 6 12 2 0 -3 14 2 30 10 18 9 41 13 53 10 17 -5 19 -4 7
4 -12 9 -11 11 8 11 13 0 49 12 80 26 75 34 255 135 263 147 4 5 12 6 18 3 6
-4 10 -3 9 2 -2 5 20 27 47 50 74 59 177 161 215 212 19 25 37 47 40 50 3 3
26 37 51 75 47 71 97 172 140 280 13 33 26 62 29 65 3 3 5 14 5 25 0 11 4 25
8 32 14 20 19 126 7 143 -9 13 -14 10 -35 -15 -14 -16 -25 -35 -25 -41 0 -17
-112 -236 -132 -258 -10 -11 -18 -23 -18 -27 0 -6 -29 -45 -98 -129 -39 -47
-110 -120 -117 -120 -2 0 -17 -12 -32 -26 -48 -44 -146 -115 -151 -109 -3 3
-12 -4 -19 -15 -8 -11 -19 -18 -24 -15 -5 4 -9 3 -9 -2 0 -11 -58 -43 -78 -43
-8 0 -23 -7 -33 -16 -9 -8 -23 -16 -31 -18 -7 -1 -38 -11 -68 -23 -81 -31 -93
-36 -110 -38 -8 -2 -40 -10 -70 -19 -50 -15 -72 -20 -135 -29 -11 -2 -25 -6
-30 -9 -6 -3 -23 -4 -40 -3 -16 1 -74 -2 -128 -7 -54 -5 -106 -7 -115 -3 -9 4
-51 8 -92 10 -70 3 -105 8 -155 20 -178 42 -340 95 -356 118 -3 5 -9 8 -13 7
-12 -3 -116 43 -116 52 0 4 -6 8 -13 8 -19 0 -202 130 -276 195 -62 55 -76 70
-115 118 -22 26 -54 65 -73 85 -18 20 -39 49 -45 64 -7 15 -16 28 -20 28 -5 0
-8 6 -8 14 0 8 -3 16 -7 18 -16 7 -64 109 -57 120 4 7 4 10 -1 6 -8 -8 -34 33
-40 64 -2 9 -11 30 -19 47 -9 17 -14 31 -10 31 4 0 1 7 -6 15 -7 8 -9 15 -5
15 4 0 3 6 -3 13 -6 7 -13 26 -17 42 -12 63 -32 181 -33 195 0 8 -4 70 -7 136
-5 86 -4 124 4 128 6 4 9 11 7 15 -3 4 -6 43 -7 85 -1 51 -5 74 -12 67 -5 -5
-10 -100 -11 -228 -1 -206 8 -302 34 -368 4 -11 15 -47 25 -80 32 -114 140
-344 166 -353 5 -2 9 -8 9 -14 0 -15 141 -186 202 -244 59 -56 166 -142 214
-170 17 -11 64 -38 103 -62 39 -24 86 -48 104 -54 18 -6 39 -17 48 -24 9 -8
18 -11 21 -8 4 3 17 -1 30 -9 92 -57 407 -121 598 -121 144 0 370 31 455 63
17 6 155 54 190 65 73 23 241 124 334 201 185 151 363 397 436 602 18 50 39
64 31 20 -2 -12 -7 -40 -11 -62 -4 -22 -12 -45 -17 -52 -5 -7 -7 -17 -4 -22 4
-5 2 -12 -3 -15 -5 -3 -12 -18 -16 -33 -7 -30 -86 -215 -95 -223 -3 -3 -12
-18 -20 -35 -34 -71 -131 -197 -221 -287 -53 -54 -102 -98 -108 -98 -6 0 -11
-4 -11 -8 0 -12 -144 -104 -242 -154 -47 -24 -126 -57 -175 -73 -48 -15 -103
-34 -121 -41 -134 -56 -638 -56 -782 0 -61 23 -137 46 -154 46 -9 0 -16 5 -16
10 0 6 -9 10 -19 10 -39 0 -358 181 -396 226 -5 6 -20 18 -33 26 -48 32 -153
138 -265 267 -109 125 -248 390 -293 556 -63 230 -71 480 -24 680 19 84 20
100 3 62z"/>
<path d="M3648 2223 c-8 -10 -18 -26 -21 -35 -4 -10 -17 -18 -29 -18 -28 0
-68 -26 -68 -44 0 -7 13 -25 29 -40 25 -24 28 -32 21 -58 -9 -30 -4 -57 11
-59 5 -1 15 -2 22 -3 6 -1 24 4 38 12 23 13 29 13 52 -2 37 -25 76 -3 67 39
-1 6 -3 18 -5 28 -2 9 9 31 26 48 16 16 29 34 29 39 0 17 -50 42 -75 38 -13
-3 -23 -2 -20 2 7 11 -34 70 -48 70 -8 0 -21 -8 -29 -17z m42 -28 c0 -8 5 -26
12 -41 11 -23 17 -25 49 -21 21 3 40 3 43 0 2 -3 -11 -19 -30 -36 -35 -30 -37
-41 -18 -91 9 -22 -12 -20 -47 5 -26 19 -30 19 -45 5 -8 -9 -24 -21 -35 -27
-19 -10 -20 -8 -13 39 6 47 5 51 -24 72 -39 29 -33 40 17 33 38 -5 39 -4 51
33 7 22 15 42 17 47 6 11 23 -2 23 -18z"/>
<path d="M2706 1712 c-3 -5 1 -9 9 -9 8 0 12 4 9 9 -3 4 -7 8 -9 8 -2 0 -6 -4
-9 -8z"/>
<path d="M3448 1523 c-19 -23 -50 -85 -37 -78 5 3 6 -1 3 -9 -3 -9 -11 -13
-17 -9 -6 4 -8 0 -4 -10 7 -18 -26 -27 -86 -23 -37 2 -87 -23 -87 -43 0 -10
35 -51 44 -51 3 0 14 -7 23 -15 10 -8 27 -21 37 -28 18 -13 18 -17 6 -48 -8
-18 -15 -40 -16 -48 -1 -9 -4 -23 -8 -31 -4 -10 2 -24 16 -37 l23 -22 55 34
c30 19 61 35 69 35 7 0 38 -14 67 -31 68 -38 100 -36 97 6 -5 66 -11 106 -18
113 -5 4 -5 1 0 -7 5 -9 4 -12 -3 -7 -16 10 -17 8 23 49 19 20 35 34 35 32 0
-3 11 5 25 17 49 43 26 78 -51 78 -77 0 -100 12 -107 53 -5 32 -50 97 -67 97
-4 0 -14 -8 -22 -17z m57 -82 c13 -34 25 -64 28 -67 3 -3 42 -8 88 -12 l84 -7
-63 -49 c-34 -27 -62 -56 -62 -65 0 -9 9 -44 19 -78 21 -68 15 -77 -29 -43
-14 11 -31 20 -37 20 -7 0 -13 4 -13 8 0 5 -12 14 -27 21 -24 11 -32 9 -84
-28 -66 -47 -84 -51 -75 -18 27 88 38 141 30 144 -5 2 -36 22 -69 46 -59 41
-59 42 -30 45 17 1 57 5 91 8 l60 5 24 70 c14 38 28 68 33 66 5 -1 20 -31 32
-66z"/>
<path d="M1476 763 c-19 -19 2 -53 83 -131 48 -48 95 -92 103 -99 61 -47 173
-123 189 -128 11 -4 16 -11 13 -17 -4 -7 -2 -8 4 -4 7 4 12 2 12 -4 0 -6 4 -9
9 -6 5 3 12 -1 15 -9 3 -8 9 -15 13 -14 15 2 53 -13 53 -22 0 -5 8 -9 18 -9
10 0 37 -9 60 -20 22 -11 47 -20 54 -20 8 0 24 -7 36 -16 12 -8 27 -12 32 -9
6 3 16 3 23 -2 6 -4 23 -9 37 -10 14 -2 34 -8 45 -13 33 -14 202 -31 320 -30
112 0 133 2 217 21 26 6 52 8 58 4 5 -3 10 -2 10 4 0 6 17 13 38 16 20 4 76
22 123 41 48 19 91 34 97 34 5 0 15 7 22 15 7 8 16 13 20 10 4 -3 13 2 20 10
7 8 19 15 26 15 8 0 14 3 14 8 0 4 16 16 36 27 47 25 74 49 74 66 -1 10 -4 9
-11 -3 -5 -10 -16 -18 -24 -18 -7 0 -15 -4 -17 -8 -4 -12 -193 -112 -211 -112
-8 0 -20 -6 -26 -14 -6 -8 -22 -16 -34 -19 -12 -3 -47 -13 -77 -22 -159 -46
-228 -55 -420 -50 -96 2 -195 9 -220 15 -25 7 -49 13 -55 14 -5 1 -14 4 -20 7
-5 4 -27 9 -48 13 -54 10 -297 114 -317 136 -6 7 -62 44 -76 50 -36 16 -182
140 -251 213 -69 72 -80 97 -33 72 17 -9 30 -19 30 -24 0 -5 16 -16 35 -25 19
-9 35 -21 35 -25 0 -4 23 -21 51 -37 28 -16 77 -44 108 -62 51 -30 87 -48 176
-88 117 -53 222 -82 390 -109 180 -29 277 -37 354 -29 42 4 79 7 83 6 20 -4
335 52 373 67 11 5 56 19 99 33 44 13 81 29 84 36 3 9 -3 10 -22 2 -19 -7 -26
-6 -26 3 0 7 -5 5 -10 -4 -8 -14 -45 -27 -122 -45 -5 -1 -9 -2 -10 -4 -2 -1
-11 -3 -20 -5 -9 -2 -33 -8 -52 -15 -20 -6 -58 -12 -85 -13 -27 -1 -47 -6 -44
-10 3 -5 -1 -7 -8 -6 -8 1 -22 -1 -31 -5 -10 -5 -31 -3 -48 3 -17 5 -29 7 -26
3 3 -5 -32 -13 -77 -20 -78 -10 -189 -9 -287 4 -25 3 -45 5 -45 3 0 -1 -10 3
-22 10 -16 8 -23 8 -23 1 0 -7 -6 -8 -18 -1 -11 6 -27 10 -38 10 -26 0 -71 8
-81 14 -5 3 -28 8 -53 12 -25 4 -49 10 -55 13 -5 4 -19 8 -30 9 -11 2 -24 8
-29 13 -6 6 -16 10 -22 10 -7 0 -25 5 -41 12 -15 6 -33 12 -39 13 -25 6 -204
98 -215 111 -6 8 -15 14 -20 14 -18 0 -174 113 -171 123 2 7 1 9 -3 5 -4 -3
-21 0 -40 7 -18 8 -35 11 -39 8z"/>
<path d="M3227 309 c-4 -16 -3 -18 9 -8 7 6 11 15 8 20 -8 13 -11 11 -17 -12z"/>
</g>
</svg>
