<svg width="285" height="310" viewBox="0 0 285 310" fill="none" xmlns="http://www.w3.org/2000/svg">
<path d="M151.177 4.31482C150.607 4.63375 149.783 4.76132 149.34 4.50618C148.96 4.25103 148.833 4.31482 149.023 4.69753C149.277 5.08025 148.58 6.48354 147.503 7.82305C145.413 10.5021 142.247 16.3704 142.88 16.3704C143.133 16.3704 142.88 16.8169 142.437 17.4547C141.803 18.2202 141.55 20.5802 141.613 26.1934C141.613 33.465 141.74 34.2305 143.703 38.823C144.843 41.5658 146.047 43.7984 146.363 43.7984C146.68 43.7984 146.933 44.1811 146.933 44.6276C146.933 45.7757 148.643 47.8807 152.57 51.7078C154.47 53.4938 156.56 55.4712 157.193 56.0453C157.827 56.6831 158.523 57.1934 158.713 57.1934C158.903 57.1934 160.043 57.9588 161.247 58.8519C162.45 59.8086 163.4 60.3189 163.4 60C163.4 59.7449 163.717 59.8086 164.16 60.2551C164.983 61.0844 167.2 60.1914 167.2 58.9794C167.2 58.5967 165.807 56.6193 164.033 54.5782C162.323 52.537 160.867 50.5597 160.867 50.177C160.867 49.7942 160.613 49.6029 160.297 49.7942C159.79 50.1132 157.447 47.2428 157.447 46.3498C157.447 46.1584 156.94 45.4568 156.307 44.7551C154.723 43.0967 152.19 37.4835 150.163 31.3601C148.833 27.1502 148.58 25.3004 148.707 20.963C148.833 18.0288 149.213 15.8601 149.53 16.0514C149.847 16.3066 149.91 16.0514 149.72 15.5412C149.53 15.0309 150.417 12.4156 151.683 9.67284C152.95 6.99383 153.9 4.63375 153.773 4.56996C153.33 4.12346 146.5 3.5 149.087 12.3519C147.883 15.3498 147.567 17.1996 147.567 22.0473C147.567 29.2551 146.047 31.1749 150.163 39.786C153.077 45.7181 156.56 47.8807 162.197 54.1955C164.667 56.9383 163.4 58.8519 166.313 59.5535C165.68 60.2551 162.117 52.358 158 48.786C150.147 42.0885 148.914 28.1955 147.584 20.286C146.761 15.3745 146.363 23.3868 147.503 22.0473C147.883 21.537 150.253 12.286 150 12.286C149.177 12.286 147.377 9.73663 149.91 6.93004C153.203 3.35803 153.33 3.0391 151.177 4.31482Z" fill="#AD0606"/>
<path d="M92.4667 9.12143C91.9601 9.56793 91.4534 10.5885 91.3267 11.4815C91.2634 12.3745 91.0101 14.0329 90.8201 15.1173C90.6301 16.2655 90.7567 17.2222 91.0101 17.2222C91.3267 17.2222 91.5167 18.498 91.4534 20.0288C91.3901 21.6235 91.8334 24.6852 92.4667 26.9177C93.8601 31.7655 97.2801 40.249 98.0401 40.7593C98.3567 40.9506 98.8001 41.7799 99.0534 42.5453C99.3067 43.3745 99.8134 44.0124 100.13 44.0124C100.51 44.0124 100.637 44.2675 100.447 44.5227C100.257 44.8416 100.637 45.4794 101.207 46.0535C101.777 46.6276 102.98 47.9671 103.74 49.0515C105.767 51.7305 111.277 57.2161 114 59.1934C115.203 60.0864 116.533 61.1708 116.85 61.4897C118.56 63.2757 135.66 71.8231 136.927 71.5679C137.18 71.5041 138.89 72.0144 140.727 72.6523C142.563 73.3539 145.223 74.0556 146.617 74.2469C148.01 74.3745 150.607 74.7572 152.317 74.9486C155.42 75.3313 160.74 75.5227 165.49 75.3313C167.327 75.2675 168.023 74.9486 168.403 73.8642C168.847 72.5885 168.593 72.3334 166.63 71.5679C165.363 71.1214 163.907 70.6749 163.4 70.5474C157.89 69.1441 156.497 68.6338 156.813 68.1873C157.003 67.8683 156.687 67.8046 156.18 67.9959C155.673 68.1873 154.027 67.9321 152.507 67.3581C151.05 66.8478 148.073 65.8272 145.983 65.0618C141.36 63.4671 132.873 59.321 132.24 58.3642C131.987 58.0453 131.733 57.9177 131.733 58.2367C131.733 59.8313 118.117 50.1996 112.48 44.5864C110.2 42.2902 108.173 40.5679 107.983 40.6955C107.793 40.8869 107.667 40.7593 107.667 40.4404C107.667 40.1214 106.653 38.7181 105.45 37.3786C104.247 35.9753 103.233 34.4445 103.233 33.998C103.233 33.5515 103.043 33.1687 102.79 33.1687C102.473 33.1687 101.46 31.3827 100.383 29.1502C99.3701 26.9815 98.2301 25.0041 97.8501 24.749C97.5334 24.4939 97.4067 24.2387 97.6601 24.2387C97.8501 24.2387 97.4067 22.0062 96.5201 19.2634C95.6967 16.5844 95.0001 13.4589 95.0001 12.3107C95.0001 11.2264 94.6834 10.0782 94.3667 9.88686C93.6701 9.44036 93.9234 14.9259 94.6834 18.179C96.3934 24.9404 101.46 34.7634 105.45 39.0371C106.337 39.9938 107.033 40.9506 107.033 41.142C107.033 41.3334 108.047 42.4177 109.377 43.5659C110.643 44.714 112.29 46.1811 112.987 46.8827C115.773 49.6255 120.777 53.5165 124.133 55.5576C126.033 56.7058 127.743 57.7901 127.933 58.0453C128.123 58.2367 131.037 59.7675 134.457 61.426C141.17 64.7428 146.237 66.784 154.217 69.2716C157.003 70.1646 160.17 71.1214 161.247 71.4404C162.323 71.8231 163.78 72.0782 164.54 72.0782C165.237 72.0782 166.06 72.3971 166.25 72.7161C166.503 73.0988 166.947 73.2264 167.263 73.035C167.58 72.7799 167.833 72.9712 167.833 73.2901C167.833 74.4383 166.917 71.0844 159 70C154.567 69.3621 151.157 67.3601 144 65C140.327 63.7881 138.07 63.313 137.5 62.42C137.247 62.101 122.233 63.0844 122.233 63.3395C122.233 63.5947 136.88 62.8027 136.5 62.42C136.057 62.101 123.627 55.3322 121.473 53.8013C112.67 47.2314 103.36 38.9095 100.447 31C100.13 30.2984 93.9234 13.2963 93.1001 11C91.2634 6.02469 99.0534 31 93.1001 9.249C94.0501 8.10085 93.7967 8.03707 92.4667 9.12143Z" fill="#AD0606"/>
<path d="M127.02 23.8827C126.45 24.393 126.007 25.4136 126.007 26.0514C126.007 26.6893 125.817 27.3909 125.5 27.5823C124.993 27.9012 125.12 36.321 125.69 38.8086C126.387 41.6152 128.667 46.0802 131.01 49.0144C133.86 52.6502 141.207 59.7942 141.207 58.9012C141.207 58.7099 142.79 59.6029 144.69 60.8148C146.59 62.0905 148.173 62.9197 148.173 62.6646C148.173 62.4732 148.87 62.7284 149.693 63.3025C150.58 63.8765 152.227 64.3868 153.367 64.4506C155.077 64.642 155.52 64.3868 155.647 63.2387C155.773 62.2181 154.95 61.1975 152.163 59.1564C150.137 57.6255 148.11 56.0946 147.603 55.7119C145.26 53.9259 137.723 45.9527 135.95 43.3374C132.403 38.1708 130.44 32.749 130.25 27.3271C129.997 22.9897 128.983 21.8415 127.02 23.8827ZM128.92 26.8806C128.983 30.7716 130.377 36.895 131.2 36.895C131.517 36.895 131.643 37.1502 131.453 37.4691C131.073 37.9794 134.24 43.3374 135.887 44.9959C136.393 45.5062 136.773 46.144 136.773 46.3992C136.773 47.4197 144.817 55.0103 149.757 58.7736C157.103 64.2592 155.9 60.9051 148.173 57.5245C145.64 56.4401 145.447 54.0247 143.673 52.8127C140.19 50.2613 135.894 45.5555 134.184 42.8127C133.614 41.856 125 23.5 128.983 44.5494C128.73 44.5494 131.263 40.6317 131.453 40.3127C131.643 39.93 128.983 43.2736 128.667 43.2736C127.717 43.2736 136.773 33.8127 126.387 32.3662C135.95 49.0144 128.613 30 129.5 30C129.69 30 128.92 25.0308 128.92 26.8806Z" fill="#AD0606"/>
<path d="M89.0633 48.9238C88.2399 50.7099 88.9366 53.3251 91.0899 56.4506C91.7866 57.4712 92.3566 58.428 92.2299 58.5555C91.3433 59.4485 98.6266 67.6769 104.58 72.4609C106.227 73.8642 107.747 75.0761 107.937 75.2675C108.127 75.4588 108.57 75.6502 109.013 75.714C109.393 75.7778 110.787 76.607 112.117 77.5C113.383 78.393 114.65 79.0946 114.967 79.0946C115.22 79.0946 116.803 79.7325 118.513 80.4979C120.16 81.2633 121.933 81.7736 122.313 81.7098C122.757 81.6461 123.643 81.8374 124.213 82.2201C124.847 82.5391 128.203 83.3683 131.75 84.1337C137.007 85.2819 139.477 85.4094 146.253 85.1543C150.75 84.9629 154.74 84.5164 155.057 84.1975C155.437 83.8148 156.45 83.5596 157.463 83.5596C160.123 83.5596 162.277 82.3477 161.96 81.0082C161.517 79.4136 159.363 78.5843 155.753 78.7119C153.98 78.7757 151.573 78.6481 150.37 78.393C149.167 78.1378 145.747 77.5638 142.833 77.2448C134.727 76.2243 122.377 72.4609 115.093 68.7613C111.547 66.9753 108.127 65.0617 107.43 64.4238C106.797 63.786 105.72 63.1481 105.023 62.893C102.997 62.2551 92.1033 51.0288 92.1033 49.6255C92.1033 49.3703 91.5333 48.8601 90.8366 48.4773C89.8866 47.9671 89.5066 48.0308 89.0633 48.9238ZM91.4066 50.5185C92.4833 53.3251 100.97 61.7448 105.847 64.9341C112.18 68.9527 119.97 72.8436 124.403 74.1831C135.043 77.2448 137.07 77.7551 140.237 78.2016C142.137 78.393 144.303 80.3703 145 80.4979C145.697 80.6893 149.637 82.6251 153.5 82.9441C157.427 83.1992 157.273 82.6889 157.527 82.9441C158.223 83.6457 159.743 82.2839 157.527 82.2839C156.45 82.2839 155.373 82.5391 155.183 82.7942C154.36 84.1975 145.652 79.7963 141.916 78.393C141.219 78.1378 131.367 75.0741 128.77 74.5C101 62.893 110.82 70.2387 102.27 61.5C96.3799 55.4403 96.5366 59 99.1333 59C99.5133 59 91.0899 49.7531 91.4066 50.5185Z" fill="#AD0606"/>
<path d="M188.417 49.6893C184.363 50.7098 181.133 52.8786 174.99 58.7469C173.597 60.0864 172.077 61.2345 171.633 61.2345C171.253 61.2345 171.063 61.4897 171.317 61.8086C171.507 62.1275 171.063 62.574 170.367 62.8292C169.67 63.0205 169.1 63.5308 169.1 63.8497C169.1 64.1687 168.657 64.4238 168.15 64.4238C166.947 64.4238 165.807 66.5925 166.313 67.9321C166.757 69.0164 167.517 69.0164 171.443 68.0596C172.203 67.8683 173.47 67.2304 174.357 66.7201C175.18 66.146 176.067 65.8909 176.257 66.146C176.51 66.3374 176.7 66.146 176.7 65.6995C176.7 65.253 176.89 64.9979 177.08 65.1893C177.27 65.3806 178.283 64.7428 179.423 63.7222C180.5 62.7016 181.957 61.681 182.653 61.4897C183.35 61.2345 184.3 60.6604 184.743 60.2139C185.25 59.7674 187.087 58.9382 188.923 58.3642C193.863 56.8971 196.65 58.0452 203.427 64.5514C205.073 66.146 206.087 67.4218 205.643 67.4218C203.807 67.5493 197.22 69.8456 196.08 70.8024C192.66 73.5452 189.05 76.9259 188.797 77.5C188.733 77.8189 187.593 79.86 186.39 81.9012C185.187 84.0061 183.667 87.0679 183.033 88.7263C180.373 95.9341 172.393 107.16 169.987 107.16C169.48 107.16 169.1 107.416 169.1 107.798C169.1 108.117 168.847 108.436 168.53 108.436C168.15 108.436 167.137 109.138 166.187 110.031C165.237 110.924 164.16 111.625 163.78 111.625C163.4 111.625 162.323 112.136 161.5 112.71C160.613 113.348 159.41 113.922 158.84 113.986C158.27 114.113 156.813 114.751 155.737 115.389C154.597 116.09 153.457 116.537 153.14 116.346C152.887 116.154 152.633 116.346 152.633 116.728C152.633 117.111 152.38 117.302 152.127 117.111C151.81 116.92 150.1 117.366 148.263 118.068C146.427 118.706 144.717 119.152 144.4 118.961C144.083 118.77 143.64 118.961 143.45 119.344C143.197 119.663 142.627 119.854 142.12 119.663C141.677 119.471 141.107 119.599 140.917 119.918C140.663 120.3 140.22 120.556 139.903 120.556C139.523 120.556 139.46 120.173 139.713 119.726C140.093 119.152 140.03 119.152 139.207 119.79C138.7 120.173 134.837 121.449 130.72 122.469C126.603 123.553 122.36 124.702 121.283 125.148C117.103 126.743 111.467 129.677 111.467 130.187C111.467 130.506 111.087 130.761 110.643 130.761C110.2 130.761 109.377 131.272 108.807 131.846C108.237 132.483 106.907 133.759 105.83 134.716C104.753 135.673 103.867 136.693 103.867 137.012C103.867 137.267 103.043 138.416 102.03 139.564C100.953 140.648 100.257 141.605 100.447 141.605C100.573 141.605 100.13 142.753 99.4334 144.156C98.7367 145.56 98.2934 146.708 98.4201 146.708C98.6101 146.708 98.0401 148.111 97.2167 149.833C96.3301 151.556 95.6967 153.724 95.7601 154.617C95.9501 156.85 96.9001 156.722 96.9001 154.49C96.9001 153.533 97.3434 152.193 97.8501 151.556C98.3567 150.854 98.8001 149.833 98.8001 149.323C98.8001 147.601 101.777 147.454 104.247 144.647C106.78 141.777 116.027 128.21 117.547 128.21C118.053 128.21 113.5 131.846 118.433 127.636C118.433 127.317 116.533 134.907 117.547 134.716C118.94 134.397 128.393 130.315 132.193 129.167C132.7 128.975 140.157 127.388 143.45 126.623C146.743 125.921 161.7 122.891 157 121C157.507 120.809 159.993 117.628 160.5 117.5C162.59 117.117 158.27 115.963 162.387 113.794C173.217 108.245 183.863 105.65 189.5 92C190.26 90.0864 192.47 85.0308 193.483 83.5C194.433 81.9691 190 78.2016 190 77.9465C190 77.181 195.847 78.5205 198 77.5C199.14 76.9897 203.617 73.8811 205.643 73.4984C211.47 72.4778 209.57 68.5061 205.453 64.8703C203.427 63.0205 201.147 60.9794 200.45 60.2139C195.447 54.9197 187.657 55.43 180.12 61.6172C177.46 63.8497 169.86 67.6131 168.15 67.6131C166.63 67.6131 168.628 68.4423 171.034 66.7201C172.301 65.8271 173.66 67.6131 176.257 65.1893C182.717 59.0658 187.003 56.5947 191.5 56.5947C198.087 56.5947 193.863 61.4897 205.453 72.716C208.24 75.395 217.55 72.0144 217.993 72.0144C218.437 72.0144 217.867 68.4423 217.993 68.6975C218.12 69.0164 209.697 72.2528 211.027 72.8269C215.017 74.7405 223.44 72.716 215.46 72.716C206.91 72.716 202.667 73.6728 198.423 76.6707C196.903 77.6913 190.07 76.5432 189.5 77.5C188.867 78.4568 193.357 82.0925 193.167 82.2839C192.913 82.4753 187.023 84.4053 186.39 86C185.757 87.5946 190.127 89.1728 189.683 90.2572C189.177 91.2777 188.037 94.1481 187.087 96.6358C186.137 99.0596 182.823 100.224 182 101.5C181.24 102.839 173.5 106.181 173.5 106.5C173.5 107.839 162.45 113.667 158.84 115.389C148.96 120.109 158.27 123.298 141.867 126.998C138.573 127.7 134.71 128.593 133.317 128.911C131.923 129.23 130.213 129.613 129.517 129.741C126.857 130.315 117.863 127.444 116.977 128.21C116.47 128.656 109.703 132.862 108.5 133.5C106.283 134.648 99.9401 147.473 97.2167 151.109C94.6834 154.49 96.7101 157.615 97.5967 157.424C98.1034 157.296 98.8001 156.531 99.2434 155.702C99.6867 154.872 100.827 152.831 101.713 151.109C102.663 149.387 103.677 148.175 104.057 148.43C104.437 148.685 104.5 148.494 104.247 148.047C103.74 147.218 113.367 137.14 114.697 137.14C115.077 137.14 116.09 136.566 116.977 135.864C117.863 135.163 119.13 134.588 119.763 134.588C120.46 134.588 121.473 134.333 122.107 134.014C123.69 133.121 125.653 132.483 126.223 132.547C126.477 132.611 126.667 132.42 126.667 132.101C126.667 131.782 127.617 131.399 128.757 131.144C131.86 130.57 132.937 130.315 138.067 129.167C144.59 127.636 148.453 126.998 149.023 127.381C149.277 127.508 149.467 127.317 149.467 126.934C149.467 126.488 149.847 126.296 150.29 126.488C150.67 126.615 151.747 126.424 152.633 125.977C153.52 125.531 155.483 124.957 157.067 124.702C158.65 124.446 160.423 123.809 161.057 123.235C161.627 122.724 162.133 122.469 162.133 122.66C162.133 122.852 163.843 122.214 165.87 121.13C167.96 120.109 169.923 119.28 170.24 119.28C170.62 119.28 171 118.833 171.253 118.323C171.443 117.813 172.013 117.366 172.457 117.366C174.103 117.366 180.627 111.051 183.35 106.842C185.567 103.525 190.063 94.1481 190.253 92.4897C190.38 91.9794 191.077 90.0658 191.9 88.3436C192.723 86.5576 193.483 85.0267 193.483 84.8353C194.307 81.5823 199.12 76.8621 202.983 75.5864C205.517 74.6934 213.18 73.8642 219.45 73.8642C222.807 73.8642 224.137 73.2901 224.2 72.0144C224.2 71.1214 220.907 68.3786 219.323 67.9321C217.74 67.5493 211.343 62.7016 211.027 61.681C210.837 60.9156 203.3 53.9629 201.97 53.3251C201.337 53.0061 200.767 52.4958 200.767 52.2407C200.767 51.9218 199.563 51.3477 198.107 50.965C196.587 50.5185 195.003 49.8806 194.56 49.4979C193.927 49.0514 193.547 49.1152 193.167 49.6893C192.85 50.2633 192.533 50.3271 192.28 49.8168C191.773 49.0514 191.203 49.0514 188.417 49.6893Z" fill="#AD0606"/>
<path d="M98.4201 82.4115C98.1034 83.4959 98.4834 84.1975 99.9401 85.537C101.017 86.4938 101.713 87.4506 101.46 87.5782C101.207 87.7058 101.333 87.7058 101.777 87.642C102.157 87.5144 103.107 88.0247 103.93 88.7263C104.69 89.3642 105.703 89.9383 106.21 89.9383C106.653 89.9383 107.033 90.2572 107.033 90.6399C107.033 90.9588 107.35 91.0864 107.667 90.8951C108.047 90.7037 108.3 90.8313 108.3 91.1502C108.3 91.5329 108.87 91.8518 109.567 91.8518C110.263 91.8518 111.91 92.4259 113.177 93.1276C114.443 93.7654 115.71 94.2119 116.027 94.0206C116.28 93.8292 116.533 93.9568 116.533 94.2119C116.533 94.5309 117.61 94.8498 119.003 94.9136C120.333 95.0411 122.233 95.2963 123.247 95.6152C125.273 96.1255 140.347 95.9979 143.767 95.3601C146.617 94.786 153.393 92.5535 154.28 91.7881C154.66 91.4691 155.103 91.4053 155.293 91.5329C155.483 91.7243 155.99 91.0226 156.433 89.9383C156.877 88.8539 157.067 87.7695 156.813 87.5144C156.56 87.323 154.28 87.1955 151.81 87.3868C145.73 87.7058 124.387 87.5782 121.537 87.1955C117.483 86.6214 105.64 83.4321 102.98 82.2202C99.6234 80.6893 98.9901 80.6893 98.4201 82.4115ZM102.473 83.3045C103.74 83.9424 105.133 84.4527 105.45 84.5802C105.83 84.644 107.54 85.2181 109.25 85.7284C111.023 86.3025 115.583 87.323 119.383 88.0885C125.59 89.3004 127.743 89.3642 139.017 89.0453C145.983 88.8539 152.76 88.4712 154.09 88.2798C157.51 87.7058 154.363 86.1111 150.5 88.0885C147.207 89.7469 147.503 87.1955 142.5 88.2798C138.953 89.0453 125.25 88.2798 120.5 87.642C116.32 87.0679 110.137 86.1687 106.21 84C98.8001 79.8539 95.8868 80.4341 102.473 83.3045Z" fill="#AD0606"/>
<path d="M65.3862 96.372C65.1329 96.5634 64.4996 96.8185 63.8029 96.9461C63.1696 97.0737 62.6629 97.2012 62.6629 97.265C62.6629 97.3288 62.0296 97.4564 61.2696 97.6477C60.5096 97.7753 58.8629 98.477 57.6596 99.1786C56.3929 99.8803 55.3796 100.263 55.3796 100.008C55.3796 99.8165 54.8729 100.072 54.3029 100.582C53.6696 101.156 51.6429 102.368 49.7429 103.325C47.9062 104.281 46.0062 105.302 45.6262 105.621C34.6062 114.679 27.7662 123.035 22.9529 133.304C21.9396 135.6 20.8629 137.45 20.6096 137.45C20.3562 137.45 20.1662 137.96 20.1029 138.535C20.0396 139.172 19.2796 141.341 18.3929 143.382C17.5062 145.36 16.3662 148.804 15.8596 151.037C15.3529 153.205 14.5296 156.714 13.9596 158.819C13.4529 160.923 12.6929 165.07 12.3129 168.067C11.9329 171.065 11.4896 174.319 11.3629 175.403C10.4129 182.483 11.4262 200.598 13.2629 209.528C13.8329 212.144 14.3396 214.759 14.4662 215.269C14.5296 215.843 14.7829 216.545 14.9729 216.864C15.1629 217.246 15.5429 218.522 15.7962 219.734C16.4296 223.115 17.3796 226.049 19.0896 229.812C19.8496 231.662 20.5462 233.703 20.5462 234.405C20.5462 235.043 20.9262 236 21.3696 236.446C21.8129 236.893 23.0162 238.87 23.9662 240.784C28.5262 249.969 31.3762 253.541 32.6429 251.563C33.4662 250.288 33.3396 249.714 31.8829 245.504C31.1862 243.463 30.4896 241.421 30.4262 241.102C30.3629 240.72 29.7929 238.998 29.2229 237.212C28.5896 235.362 28.1462 233.639 28.2096 233.384C28.2729 233.065 28.2096 232.364 27.9562 231.853C27.7662 231.343 27.3862 230.004 27.1329 228.983C26.8796 227.899 26.5629 226.623 26.4362 226.113C26.3096 225.602 26.0562 224.072 25.9296 222.732C25.7396 221.393 25.4862 220.053 25.2962 219.798C24.7262 218.841 23.6496 210.613 23.3329 204.744C22.5729 191.732 22.8262 166.792 23.7129 166.792C23.9029 166.792 24.0929 165.006 24.2196 162.837C24.3462 160.668 24.5996 158.563 24.8529 158.181C25.0429 157.862 25.3596 157.096 25.4229 156.586C25.8029 154.162 26.0562 152.886 26.8162 150.207C28.3362 144.722 28.9696 142.872 29.6029 141.979C29.9829 141.533 30.3629 140.831 30.4896 140.384C30.5529 140.002 30.8062 138.79 30.9962 137.769C31.1862 136.685 31.6296 135.728 32.0096 135.664C32.3262 135.537 32.5796 135.026 32.5796 134.516C32.5796 133.687 36.1896 126.67 37.0129 125.969C37.2029 125.777 38.0896 124.502 39.0396 123.098C44.6129 114.934 53.9229 105.94 55.6329 107.152C55.8229 107.343 55.8862 107.279 55.6962 107.088C55.5696 106.833 55.7596 106.386 56.2029 105.94C57.2162 104.983 65.8296 100.454 66.6529 100.454C67.7929 100.454 72.4796 97.0737 72.0996 96.4996C71.7196 95.9255 65.9562 95.798 65.3862 96.372ZM67.7129 97.265C63.2796 99.1148 63.6762 100.263 60.5096 102.049C58.9896 102.942 57.3429 103.644 56.8362 103.644C56.3929 103.644 56.0129 103.899 56.0129 104.218C56.0129 104.6 53.8985 105.94 53.3529 106.45C49.9962 108.428 45.4318 105.397 42.8985 109.224C41.7585 110.819 32.3896 120.308 32.0096 120.563C31.6296 120.818 36.2529 124.055 36.5062 124.055C36.6962 124.055 31.3129 120.228 29.6029 123.098C27.8929 125.905 30.6796 134.707 30.6796 134.963C30.6796 135.218 19.7796 139.368 26.0996 139.063C25.7196 140.02 27.6629 137.578 27.5996 137.769C27.5362 137.96 28.6529 140.512 28.2096 141.596C27.7662 142.617 19.1869 140.703 18.7435 142.553C18.2369 144.403 25.5496 150.463 25.3596 150.718C24.8529 151.611 13.9229 162.312 13.0996 168.563C12.0862 176.154 12.2496 198.611 13.2629 205.563C14.0229 210.985 16.7862 218.366 17.8629 225.063C18.4329 228.954 25.493 240.586 26.3796 242.563C28.4696 247.156 33.3396 251.467 31.8829 250C31.1229 249.235 27.7029 245.312 24.8529 239.508C23.7762 237.212 22.6996 235.234 22.5096 235.043C22.2562 234.851 21.5596 233.002 20.9262 230.897C20.2296 228.792 19.4696 226.751 19.1529 226.368C18.6462 225.666 15.7329 215.269 14.7829 210.932C13.0096 202.321 12.1862 179.35 13.2629 177.5C13.3896 177.245 18.3629 187.063 13.2629 171.257C14.0862 162.773 23.8396 153.477 25.4229 151.563C25.8029 151.181 19.8496 143.574 19.5962 143.191C19.4062 142.872 19.5329 142.553 19.8496 142.553C20.2296 142.553 28.0996 144.01 28.0996 143.563C28.0996 142.351 29.2229 137.323 30.9962 134.963C31.8196 133.878 29.4129 124.693 29.4129 124.374C29.4129 124.119 36.19 123.529 35.5 119C40.63 112.94 46.3862 106.259 50.6296 104.345C52.2129 103.644 53.4796 102.751 53.4796 102.432C44.3985 106.45 40.3985 112.224 50.6296 108.457C51.0729 108.457 57.6862 104.181 59.7129 103.224C63.7662 101.438 68.0462 96.7547 70.5796 96.6909C71.7196 96.6909 69.9929 96.3082 67.7129 97.265Z" fill="#AD0606"/>
<path d="M56.5566 112.837C52.7566 116.728 48.8933 121.193 47.88 123.043C47.5633 123.617 46.8033 124.51 46.2333 125.021C45.3466 125.85 44.46 127.508 44.3333 128.529C44.3333 128.72 43.5733 130.187 42.6233 131.846C40.09 136.502 40.09 136.502 38 142.115C36.2266 146.899 34.4533 152.767 33.8833 155.957C31.4133 168.842 31.0333 172.924 30.97 188.169C30.97 201.691 31.0333 202.521 32.5533 210.494C33.06 213.109 33.63 216.298 33.8833 217.51C34.0733 218.722 34.8333 221.529 35.4666 223.698C36.1633 225.866 36.7333 228.226 36.7333 228.864C36.7333 229.502 36.9233 230.267 37.24 230.523C37.4933 230.778 37.6833 231.224 37.7466 231.416C37.7466 231.671 38.2533 233.01 38.8866 234.414C39.52 235.817 40.4066 237.986 40.85 239.198C43.5733 246.597 52.6933 262.224 56.5566 266.115C57.1266 266.753 57.6333 267.455 57.6333 267.774C57.6333 268.73 72.0733 283.082 75.1133 285.123C76.8233 286.272 78.5333 287.547 78.85 287.93C79.7367 288.887 86.1967 293.161 87.59 293.607C88.16 293.862 88.6666 294.245 88.6666 294.564C88.6666 294.883 89.49 295.329 90.5033 295.521C91.5167 295.712 92.72 296.35 93.2267 296.86C94.62 298.263 98.8 298.901 99.4967 297.817C100.383 296.35 100.257 296.158 96.2667 293.352C94.1767 291.885 92.4667 290.418 92.4667 290.099C92.4667 289.78 91.96 289.333 91.39 289.142C88.8567 288.185 76.8866 276.13 72.2 269.879C71.3133 268.73 69.92 266.881 69.0333 265.733C67.26 263.5 62.7 256.611 62.7 256.101C62.7 255.973 61.56 253.868 60.1033 251.572C58.71 249.212 57.5066 246.788 57.4433 246.15C57.38 245.512 57.19 245.13 57 245.257C56.81 245.385 56.3666 244.747 55.9233 243.918C55.5433 243.088 55.4166 242.514 55.7333 242.706C55.9866 242.897 56.3666 242.578 56.5566 242.068C56.81 241.494 56.62 241.302 56.05 241.558C55.3533 241.749 54.53 240.665 53.2 237.539C52.1233 235.179 51.1733 232.819 51.11 232.245C50.9833 231.671 50.6033 230.65 50.2233 229.949C49.2733 228.163 45.41 215.724 45.3466 214.066C45.2833 213.364 45.0933 212.599 44.84 212.407C44.5866 212.216 44.27 211.323 44.1433 210.494C43.9533 209.601 43.51 207.623 43.13 206.029C41.2933 198.438 40.5966 189.444 40.7866 175.73C40.9766 163.675 41.23 159.72 42.0533 154.362C42.75 149.961 43.32 148.047 43.7 148.302C44.0166 148.494 44.08 148.047 43.89 147.409C43.7 146.708 44.0166 145.241 44.5866 144.093C45.1566 142.944 45.6 141.796 45.6 141.541C45.6 141.286 45.8533 140.393 46.17 139.564C46.4866 138.735 46.8033 137.778 46.8666 137.459C47.8166 134.014 55.4166 120.556 56.43 120.556C56.7466 120.556 57 120.173 57 119.663C57 119.216 57.8866 117.94 58.9 116.792C59.9766 115.708 60.61 114.815 60.3566 114.815C60.04 114.751 60.42 114.305 61.1166 113.667C62.5733 112.455 63.5866 110.35 62.7633 110.35C62.4466 110.35 62.8977 108.735 62.3277 109.5C61.821 110.329 56.8933 113.033 55.5 114.5C54.1067 116.031 52.57 117.916 52 119C51.43 120.148 49.3628 123.01 48.3494 124.604C46.1961 127.985 41 135.979 41 137C41 137.447 43.89 139.436 45.6633 137.523C44.7766 138.479 40.7233 153.66 40.1533 158.189C39.8366 160.486 32 176.623 32 184.533C32 198.693 40.3433 199.969 42.0533 206.348C42.4966 208.07 33.8667 214.385 34.5 217C35.1333 219.615 45.3466 219.36 45.5366 219.743C45.7266 220.062 45.9166 220.508 45.9166 220.7C46.1066 222.039 48.5766 229.311 49.78 232.245C50.6033 234.222 47.5 250.245 47.5 250.5C47.5 251.521 59.9133 254.187 61.94 257.249C63.08 258.844 63.9666 260.438 63.9666 260.821C63.9666 261.204 64.2833 261.523 64.6 261.523C64.98 261.523 63.65 262.671 63.9666 263.5C64.5366 264.84 68.4733 271.895 70.5 274C71.0067 274.51 74.1067 276.342 75.5 278C76.8933 279.722 79.1666 279.893 79.61 280.276C82.1433 282.7 89.4267 289.461 90.63 290.609C91.4533 291.311 93.0367 294.181 95 295.521C97.0267 296.86 98.5 297.218 99.1167 297.307C98.3567 298.455 87.7267 286.388 80 280.648C67.7133 271.526 67.1966 266.77 61.94 256.5C61.1166 254.905 47.69 250.233 47.5 250.041C46.6766 249.276 52.8233 250.37 52 247.5C51.7467 246.607 53.3433 234.414 51.11 234.414C50.6033 233.776 47.4161 223.187 46.7827 219.743C46.5927 218.722 35.0866 216.681 34.8333 215.852C34.5166 215.086 43.07 210.558 42.5 206.348C41.6767 200.352 32.2366 195.823 32.49 184.533C32.8066 169.416 38.1436 176.996 39.8536 171C40.3602 169.086 39.7269 163.521 39.8536 162.5C40.0436 161.416 41.2467 155.702 41.5 155C41.8167 154.298 42.4392 146.708 43.4525 144.093C48.5192 130.825 53.5166 115.58 61.4333 110.158C62.89 109.138 62.89 109.074 61.6866 109.074C60.8633 109.074 58.7733 110.669 56.5566 112.837Z" fill="#AD0606"/>
<path d="M178.663 119.28C178.473 119.663 177.966 119.79 177.586 119.599C177.206 119.344 177.08 119.407 177.27 119.726C177.46 120.109 177.08 121.576 176.446 123.043C175.18 125.85 175.306 125.786 169.986 125.914C169.036 125.977 168.403 126.169 168.593 126.424C168.72 126.679 168.403 126.998 167.896 127.253C166.503 127.763 166.756 129.932 168.403 131.08C172.14 133.695 172.266 133.887 171.316 135.099C170.556 135.992 170.556 136.119 171.316 135.609C172.013 135.226 172.14 135.354 171.76 136.311C169.923 140.776 171.253 144.093 174.356 142.881C175.243 142.562 176.826 141.669 177.903 140.903C178.98 140.138 179.613 139.883 179.296 140.457C178.853 141.222 178.916 141.222 179.74 140.521C180.31 140.074 180.88 139.946 181.006 140.202C181.323 140.967 186.136 143.391 187.213 143.327C187.91 143.263 188.163 142.498 188.1 140.074C188.1 138.288 187.846 136.438 187.593 135.864C187.276 135.163 188.036 133.951 190.063 131.846C192.596 129.23 192.85 128.656 192.153 127.763C190.886 126.105 190.253 125.786 188.86 126.105C186.01 126.679 184.173 125.722 183.16 123.107C182.59 121.704 182.273 120.3 182.4 120.045C182.59 119.79 182.4 119.535 181.956 119.535C181.513 119.535 180.753 119.28 180.183 119.088C179.55 118.833 178.916 118.961 178.663 119.28ZM181.513 124C178.663 127.253 182.21 125.85 183.096 126.743C184.426 128.082 180.876 132.114 183.346 132.051C184.993 131.987 180.824 132.739 181.14 132.739C181.394 132.802 181.513 132.962 179.74 134.429C177.016 136.725 185.376 133.951 185.693 135.29C185.883 136.183 181.386 127.763 181.513 128.401C181.64 129.039 180.816 134.593 181.006 135.294C181.576 137.08 185.82 133.568 182.4 131.08L183.16 130.191L175.09 129.191C171.607 131.679 171.57 142.37 172.646 140.393C173.026 139.691 173.153 139.117 173.026 139.117C172.836 139.117 173.153 137.905 173.66 136.374C174.61 133.759 174.546 133.695 173.153 132.739C170.493 130.953 184.3 134.167 184.68 133.784C184.87 133.592 169.543 127.955 170.303 127.955C171.063 127.891 183.16 137.395 184.68 137.331C186.517 137.267 177.08 127.381 177.08 126.743C177.08 126.232 177.65 124.446 178.41 122.724L179.74 119.663L175.09 128.401C175.597 129.294 197.5 147 181.513 124Z" fill="#F5F5F5"/>
<path d="M267.9 122.086C267.9 122.214 268.407 122.724 269.04 123.171C269.99 124 270.053 123.936 269.23 122.916C268.407 121.895 267.9 121.576 267.9 122.086Z" fill="black"/>
<path d="M94.7466 123.362C93.2899 124.702 91.1366 125.722 90.5666 125.34C90.1866 125.148 90.1233 125.403 90.3133 125.914C90.5033 126.488 89.9333 127.253 88.7299 127.955C87.6533 128.593 86.7666 129.358 86.7666 129.677C86.7666 129.932 86.4499 129.996 86.0066 129.741C85.6266 129.486 85.4999 129.549 85.6899 129.932C85.9433 130.315 85.4999 131.335 84.6766 132.165C80.4966 136.885 79.2933 138.607 77.2033 142.944C75.9366 145.56 74.6699 148.43 74.4799 149.387C74.2266 150.407 73.7833 151.173 73.4033 151.173C73.0233 151.173 72.8966 151.428 73.0866 151.683C73.2766 152.002 73.0233 153.405 72.5166 154.809C71.6299 157.296 71.3766 158.955 70.6799 166.481C69.7299 175.475 71.0599 190.337 73.1499 195.377C73.6566 196.588 73.8466 197.8 73.5933 197.992C73.4033 198.247 73.5299 198.63 73.9099 198.885C74.2899 199.14 74.7333 200.033 74.7966 200.926C74.9233 201.819 75.4299 202.903 75.8733 203.35C76.3166 203.86 76.5066 204.434 76.3166 204.753C76.1266 205.008 76.4433 205.582 76.9499 206.029C77.4566 206.475 77.8999 207.241 77.8999 207.687C77.8999 208.198 78.5966 209.728 79.4833 211.132C80.3699 212.535 80.8766 213.683 80.6233 213.683C80.3066 213.683 80.4333 213.938 80.8133 214.193C81.1299 214.449 82.0799 215.66 82.8399 216.872C83.5999 218.084 84.9299 219.934 85.8166 220.955C86.7033 221.975 87.4 222.996 87.4 223.187C87.4 223.825 91.1999 227.971 91.1999 227.333C91.1999 227.014 91.6433 227.461 92.2133 228.29C93.9233 230.714 101.08 237.284 102.093 237.284C102.347 237.284 102.6 237.794 102.6 238.368C102.6 238.942 102.79 239.261 102.98 239.006C103.36 238.687 110.643 242.387 112.733 243.981C113.873 244.874 126.223 249.786 128.883 250.36C129.96 250.615 131.797 250.934 133 251.062C136.8 251.444 138.13 251.955 137.623 252.784C137.307 253.358 137.433 253.358 138.13 252.848C139.143 251.955 152.633 251.891 152.633 252.72C152.633 253.039 153.267 252.912 154.09 252.465C154.85 252.019 155.8 251.636 156.117 251.572C157.827 251.444 161.943 250.551 163.083 250.105C163.78 249.786 165.173 249.212 166.123 248.829C167.137 248.447 168.213 248.255 168.53 248.447C168.847 248.702 169.1 248.574 169.1 248.191C169.1 247.809 170.24 247.171 171.633 246.788C172.963 246.342 173.977 245.831 173.85 245.512C173.66 245.257 174.04 244.874 174.673 244.683C178.03 243.599 189.557 232.372 190.127 229.566C190.253 229.119 190.76 228.226 191.267 227.588C192.343 226.249 195.637 218.148 196.333 215.086C196.713 213.492 196.65 212.854 195.89 212.599C194.687 212.088 191.773 213.747 192.153 214.704C192.343 215.15 191.773 216.298 190.887 217.319C188.607 219.934 188.1 220.636 188.1 220.955C188.1 221.146 187.403 222.358 186.517 223.634C185.63 224.909 184.933 225.802 184.933 225.547C184.933 225.356 183.92 226.313 182.653 227.716C181.387 229.119 180.057 230.076 179.677 229.821C179.36 229.63 179.233 229.693 179.423 230.076C179.677 230.395 179.043 231.097 178.093 231.607C177.143 232.117 176.003 232.883 175.56 233.265C175.117 233.712 174.167 234.095 173.47 234.095C172.837 234.095 172.33 234.477 172.393 234.86C172.52 235.307 172.077 235.626 171.507 235.498C170.873 235.37 170.367 235.562 170.367 235.881C170.367 236.455 164.223 238.432 160.55 239.07C157.763 239.516 143.197 239.516 140.6 239.006C139.397 238.815 137.687 238.496 136.8 238.305C135.913 238.113 134.203 237.73 133 237.539C131.797 237.284 130.213 236.774 129.517 236.455C128.82 236.072 128.123 235.689 127.933 235.689C125.843 235.243 122.043 233.712 121.093 232.883C120.46 232.309 119.573 231.798 119.13 231.671C116.533 231.097 113.937 229.566 114.38 228.928C114.633 228.481 114.57 228.354 114.127 228.545C113.113 229.247 111.34 228.29 111.72 227.27C111.91 226.759 111.783 226.568 111.467 226.759C110.96 227.078 106.02 224.399 105.133 223.315C104.943 223.123 103.803 222.167 102.6 221.21C99.7499 219.041 96.9 216.49 96.9 216.107C96.9 215.979 95.3799 214.193 93.4799 212.088C91.5799 210.047 90.1233 208.134 90.3133 207.815C90.5033 207.56 90.3133 207.305 89.9333 207.305C89.5533 207.305 89.1099 206.794 88.8566 206.156C88.6033 205.582 87.7166 203.924 86.8299 202.521C84.9933 199.714 83.7899 197.163 81.8266 192.315C78.0266 182.811 77.4566 164.759 80.6866 154.426C81.5733 151.428 82.7133 148.813 83.1566 148.494C83.5366 148.239 83.7266 147.984 83.4733 147.984C82.7133 147.984 85.3733 142.37 88.3499 137.65C91.5799 132.675 97.4066 126.169 98.2299 126.615C98.4833 126.807 98.9266 126.615 99.1799 126.233C99.4966 125.722 99.3699 125.658 98.7999 125.977C98.1666 126.36 98.0399 126.105 98.3566 125.021C98.7366 123.617 98.6733 123.617 97.5333 124.765C96.8366 125.467 93.9433 124.702 93.5 125.084C92.6767 125.786 92.7199 127.189 88.7299 132.165C86.3233 135.163 75 149.068 75 150.535C75 150.981 74.5067 154.979 74 156C70.39 163.399 73.5933 182.389 77.1399 191C77.5199 191.957 76.2533 200.309 76.3166 200.5C80.5599 212.045 87.6767 223.453 98 232C106.36 238.953 126.287 237.475 136.863 239.644C143.703 241.047 167 242.403 167 241C167 240.745 178.367 239.644 179 239.644C180.583 239.644 181.125 238.432 182.012 237.539C187.922 238.467 184.617 226.5 184.933 226.5C186.073 226.5 182.717 229.757 185.377 226.823C187.91 224.016 193.357 219.551 195.89 215.086C196.523 214.002 194.94 213.045 195.193 213.045C196.713 213.045 189.24 221.082 185.377 226.823C182.843 230.65 178.22 241.749 177.143 241.749C176.827 241.749 175.687 242.451 174.61 243.28C172.393 244.938 185.749 236.327 182.012 237.539C177.325 239.07 175.157 239.516 168 239.644C157.867 239.708 138.5 240 147 241C139.907 238.13 127.649 238.815 125.812 237.539C124.926 236.965 113.683 237.212 111.72 236C102.6 230.642 90.37 217.504 86 208C85.3667 206.597 78.5966 206.794 78.3433 206.603C80.6233 205.646 79.9899 206.156 77.7733 205.646C80.6233 210 81.1299 204.893 80.8133 204C79.3566 200.3 79.6967 190.837 79 186.5C78.62 183.949 77 183.008 77 179.5C77 173.058 74.1133 156.084 75 154.809C75.3167 154.426 74.8599 152.13 75.3666 150.535C76.3799 147.154 82.8399 144.117 84.6766 141.757C87.7166 137.994 96.3933 124.86 98.2299 124.095C99.3066 123.648 96.9633 123.936 97.0899 123.49C97.4699 122.469 95.8233 122.405 94.7466 123.362Z" fill="#AD0606"/>
<path d="M105.133 126.615C99.0533 130.442 94.4933 134.652 92.6567 137.969C92.2133 138.735 91.8967 139.053 91.8333 138.735C91.8333 137.586 85.31 150.28 85.12 151.811C85.12 152.321 84.8033 153.469 84.55 154.362C83.98 156.148 83.9167 156.595 83.03 162.973C82.3333 167.885 82.2067 172.796 82.5867 175.73C83.4733 182.556 84.8667 188.87 85.6267 189.763C85.88 190.082 86.1333 190.72 86.1333 191.23C86.1333 192.506 92.4667 205.391 93.1 205.391C93.4167 205.391 94.3033 206.603 95.19 208.134C97.66 212.344 104.943 219.36 109.25 221.784C115.267 225.037 119.7 227.014 121.79 227.333C123.12 227.525 124.767 228.035 125.4 228.354C126.097 228.737 127.427 228.992 128.377 228.992C129.327 228.992 130.72 228.992 131.417 228.992C136.547 228.992 138.7 228.864 138.7 228.418C138.7 228.099 139.967 227.716 141.55 227.525C145.287 226.951 152.95 223.187 155.99 220.381C157.32 219.169 158.65 218.148 158.967 218.148C159.917 218.148 160.36 215.597 159.6 214.64C158.967 213.874 158.523 213.874 156.56 214.895C154.407 215.979 149.593 217.702 148.833 217.702C148.643 217.702 147.123 218.148 145.35 218.786C143.07 219.551 140.473 219.807 136.167 219.679C129.2 219.424 128.377 219.36 125.4 218.021C124.197 217.51 122.107 216.745 120.84 216.298C119.51 215.852 118.433 215.214 118.433 214.895C118.433 214.512 118.18 214.385 117.863 214.64C117.483 214.831 117.04 214.576 116.723 214.13C116.47 213.619 115.583 212.918 114.76 212.471C114 212.025 113.493 211.387 113.747 211.004C114 210.621 113.937 210.494 113.557 210.685C112.543 211.323 106.78 205.2 103.297 199.842C101.523 197.099 99.8133 194.547 99.4967 194.165C99.18 193.782 98.7367 192.825 98.4833 191.932C98.23 191.103 97.4067 189.253 96.5833 187.85C95.38 185.681 94.3033 182.364 94.24 180.706C94.24 180.387 93.9867 179.877 93.67 179.43C92.34 177.899 91.5167 158.827 92.6567 158.062C93.2267 157.679 93.2267 157.551 92.5933 157.551C92.0233 157.551 91.96 157.233 92.34 156.403C92.6567 155.829 93.2267 153.66 93.67 151.619C94.1133 149.642 94.6833 147.984 95 147.984C95.3167 147.984 95.4433 147.601 95.2533 147.091C95.0633 146.644 95.38 145.815 95.8867 145.241C96.3933 144.73 96.7733 144.22 96.6467 144.093C96.2033 143.582 101.143 136.821 101.84 136.949C102.283 137.076 102.41 136.693 102.157 136.056C101.84 135.29 101.967 135.163 102.663 135.545C103.17 135.8 103.36 135.8 103.043 135.545C102.79 135.226 103.93 133.759 105.577 132.228C110.897 127.317 111.34 126.743 111.023 125.85C110.707 125.021 110.517 125.084 110.01 126.041C109.63 126.743 104.887 127.798 104 128.5C98.8067 132.519 93.1 145.623 93.1 148.749C93.1 149.323 92.15 143.245 91.8333 143.5C91.4533 143.691 91.8967 151.045 91.8967 151.683C91.8967 152.257 91.58 154.362 91.1367 156.276C90.1867 160.996 83.5367 181.566 84.8033 184.5C85.3733 185.712 88.7782 195.405 89.2215 197C90.9948 203.57 103.677 204.115 107.793 207.623C108.743 208.453 109.567 209.409 109.567 209.728C109.567 210.047 110.263 210.685 111.15 211.132C112.037 211.578 112.733 212.216 112.733 212.471C112.733 213.173 119.763 217.383 122.93 218.531C131.987 221.848 137.26 227.305 146 224.945C151.573 223.414 154.597 217.446 157.51 215.597C159.473 214.321 157.827 214.704 155.99 216.298C152.57 219.233 147.25 224.718 145.223 225.228C144.083 225.547 133.767 219.998 132.5 220.381C129.46 221.21 126.943 226.695 126.5 225.994C126.31 225.675 124.45 222.5 123.5 222.5C122.55 222.5 121.6 226.249 121.347 225.994C121.157 225.739 131.133 227.652 130.5 227.525C129.803 227.397 134.236 222.084 132.082 221C124.546 217.173 117.637 218.403 112 211.132C108.833 207.049 87.4 192.953 87.4 191.167C87.4 190.656 86.9567 189.381 86.3867 188.232C83.8533 183.193 87.3848 176.601 89.2215 168.5C90.5515 162.44 83.8533 184.819 84.8033 184.5C85.12 184.372 94 150.447 94 150C94 147.576 104.183 129.677 109.567 126.615C111.72 125.339 109.567 125.148 109.567 124.893C109.567 124 108.617 124.319 105.133 126.615Z" fill="#AD0606"/>
<path d="M135.977 132.802C135.407 133.121 134.013 133.313 133 133.121C131.923 132.994 131.227 133.121 131.48 133.44C131.797 134.014 131.29 134.142 128.757 134.206C127.997 134.206 127.49 134.461 127.68 134.716C127.87 135.035 127.363 135.29 126.54 135.29C125.717 135.29 124.64 135.673 124.26 136.056C123.817 136.502 123.247 136.885 122.993 136.885C122.74 136.949 121.917 137.267 121.22 137.714C120.46 138.097 119.637 138.224 119.383 137.969C119.067 137.714 119.003 137.842 119.257 138.16C119.447 138.543 117.927 139.946 115.9 141.286C113.81 142.689 112.29 143.965 112.417 144.22C112.543 144.475 111.783 145.56 110.643 146.58C108.49 148.621 107.793 149.578 106.653 151.619C103.107 158.126 102.093 160.422 101.46 163.356C101.017 165.652 100.953 181.025 101.46 184.405C101.65 186 101.84 187.531 101.903 187.786C101.967 188.105 102.22 188.169 102.537 187.977C102.853 187.722 102.98 188.233 102.727 188.998C102.473 190.019 102.6 190.21 103.233 189.827C103.867 189.444 103.993 189.7 103.74 190.975C103.55 192.123 103.677 192.506 104.247 192.251C104.817 192.06 105.007 192.379 104.817 193.272C104.69 194.037 104.817 194.484 105.133 194.292C105.387 194.101 106.527 195.504 107.54 197.29C108.617 199.14 110.2 201.181 111.087 201.883C111.973 202.521 112.543 203.286 112.353 203.605C112.163 203.924 112.29 204.179 112.607 204.179C113.177 204.179 114.697 205.327 119.447 209.218C119.89 209.601 120.397 209.665 120.587 209.473C120.777 209.218 120.967 209.409 120.967 209.792C120.967 210.239 121.157 210.494 121.473 210.43C121.727 210.366 122.74 210.685 123.69 211.068C124.703 211.514 125.78 211.833 126.097 211.833C126.477 211.833 126.54 212.152 126.35 212.535C126.097 212.918 126.287 213.109 126.73 213.045C128.313 212.79 133 213.874 132.683 214.449C132.493 214.704 136.8 214.895 142.31 214.831C149.53 214.704 152.317 214.449 152.507 213.874C152.633 213.492 153.33 213.109 153.963 213.109C154.66 213.109 156.497 212.407 158.017 211.578C159.537 210.685 160.93 210.175 161.12 210.366C161.31 210.621 161.5 210.43 161.5 210.047C161.5 209.601 161.943 209.282 162.45 209.282C162.957 209.282 163.4 208.963 163.4 208.644C163.4 208.261 163.907 208.006 164.603 208.006C165.237 208.006 166.377 207.177 167.2 206.093C167.96 205.072 168.91 204.307 169.29 204.37C169.67 204.434 169.987 204.179 170.05 203.86C170.05 203.286 172.203 200.607 174.863 197.8C175.37 197.226 175.687 196.397 175.56 195.887C175.37 195.377 175.56 195.249 176.067 195.568C176.637 195.887 176.763 195.823 176.447 195.377C176.193 194.93 176.257 194.611 176.51 194.611C176.827 194.611 177.46 193.591 177.903 192.379C178.347 191.167 178.917 190.274 179.17 190.401C179.423 190.593 179.677 189.955 179.74 188.998C179.803 188.105 180.12 187.212 180.373 187.021C180.69 186.829 180.88 186.064 180.943 185.362C180.943 184.66 181.197 182.811 181.45 181.216C181.767 179.621 182.02 176.432 182.02 174.008C182.02 171.648 182.273 169.735 182.527 169.735C182.78 169.735 183.033 169.416 183.033 169.033C183.033 168.714 182.653 168.586 182.273 168.842C181.767 169.16 181.83 168.842 182.4 168.14C182.97 167.438 183.033 167.119 182.59 167.438C182.083 167.693 181.767 167.566 181.703 167.056C181.703 166.609 181.513 165.652 181.323 164.951C181.133 164.249 181.007 162.846 181.07 161.889C181.07 160.932 180.817 160.294 180.5 160.486C180.12 160.741 179.867 160.039 179.867 158.955C179.867 157.679 179.55 157.041 179.107 157.105C178.6 157.232 178.347 156.722 178.41 156.021C178.473 155.319 178.093 154.553 177.65 154.235C177.143 153.979 176.89 153.342 177.08 152.895C177.27 152.385 177.08 151.811 176.637 151.492C176.13 151.237 176.003 151.3 176.32 151.747C176.573 152.193 176.637 152.512 176.51 152.512C176.13 152.512 173.28 147.92 173.28 147.282C173.217 147.091 172.963 146.644 172.647 146.325C172.33 146.006 172.267 146.198 172.52 146.772C172.773 147.282 172.52 147.154 172.013 146.516C171.443 145.815 171 144.986 171 144.667C171 144.412 170.747 144.348 170.367 144.539C170.05 144.73 169.733 144.603 169.733 144.22C169.733 143.455 166.757 140.776 165.807 140.648C165.49 140.584 165.11 140.521 164.857 140.457C164.54 140.393 164.667 140.138 165.11 139.883C165.553 139.628 164.16 138.798 161.753 137.842C159.537 137.012 158.017 136.119 158.397 135.864C158.84 135.609 158.713 135.29 158.017 135.035C156.56 134.525 156.307 134.525 156.687 135.226C156.94 135.545 156.497 135.673 155.8 135.481C155.103 135.29 154.723 134.907 154.913 134.588C155.103 134.27 154.723 134.078 154.09 134.142C152.063 134.27 150.67 134.014 150.923 133.504C151.113 133.249 148.77 132.994 145.793 132.866C142.753 132.802 139.587 132.611 138.7 132.42C137.813 132.228 136.61 132.42 135.977 132.802ZM135.977 181.216C149.847 183.704 146.973 160.638 150.267 175.117C150.9 177.796 160.837 175.969 160.267 179.477C159.697 182.858 161.897 193.335 166.267 192.379C166.267 192.379 162.513 194.122 163.4 193.272C158.667 195.504 169.86 198.374 167.2 201.117C158.967 209.346 184.87 189.062 173.28 188.998C162.323 188.934 178.283 173.243 170.05 164.951C162.703 157.424 134.767 151.556 134.767 140.457C134.767 129.677 112.227 160.23 119.447 152.895C125.97 146.325 125.78 142.947 132.683 142.117C134.077 141.99 133.943 149.132 134.767 147.282C134.767 152.959 133.19 180.706 135.977 181.216Z" fill="#FBFF43"/>
<path d="M126.033 158.763C126.033 159.146 126.287 159.593 126.667 159.784C127.047 159.975 127.11 159.72 126.92 159.21C126.477 158.062 126.033 157.87 126.033 158.763Z" fill="black"/>
<path d="M125.97 145.56C125.843 147.665 125.653 149.004 124.83 154.043C123.753 160.932 123.5 162.144 122.803 163.484C121.6 165.716 121.537 166.099 120.143 194.547C120.017 197.864 119.637 201.691 119.383 203.031L118.877 205.391L132.113 205.263L145.35 205.072L145.16 203.031C144.97 200.99 146.49 197.099 147.567 197.099C148.137 197.099 142.753 201.193 142.817 204C142.88 205.595 149.213 205.072 155.04 205.263L160.867 205.455V200.352C160.867 197.545 160.613 195.058 160.233 194.866C159.917 194.675 159.6 193.08 159.6 191.358V188.232L156.623 188.041C153.71 187.85 153.583 187.786 153.773 186.128C153.9 185.043 153.393 183.576 152.443 182.3C150.48 179.621 147.567 174.072 147.567 172.988C147.567 172.541 147.313 172.35 146.933 172.541C146.617 172.732 146.3 173.434 146.3 174.072C146.3 174.646 145.033 177.261 143.45 179.813C141.803 182.492 140.6 185.235 140.6 186.319C140.6 188.105 140.537 188.169 137.433 188.169C135.723 188.169 134.077 188.169 133.823 188.169C133.507 188.169 133.127 184.214 132.873 179.43C132.683 174.582 132.367 170.053 132.24 169.352C131.29 164.823 130.91 163.484 130.213 162.335C129.77 161.634 129.2 159.21 128.947 156.914C128.693 154.617 128.377 152.321 128.313 151.811C128.25 151.3 127.933 149.323 127.617 147.473C127.11 144.093 126.097 142.944 125.97 145.56ZM127.237 154.809C127.237 156.403 127.173 156.403 126.73 155.319C126.413 154.617 129.01 162.319 129.2 162C129.707 161.107 127.3 153.086 127.237 154.809ZM124.83 158C124.767 159.531 127.743 162.463 127.933 162.335C128.313 162.08 128.377 163.043 128.567 164C128.693 164.447 126.31 178.66 126.5 180C127.64 187.718 131.163 175.922 128.883 174.391C127.87 173.753 127.3 173.625 126.983 174.136C126.667 174.646 126.287 174.646 125.78 174.2C124.83 173.434 123.247 174.901 122.677 177.006C122.423 177.708 130.34 173.605 130.53 171.5C131.037 164.611 128.386 165.27 129.273 163.484C129.78 162.527 125.4 160.805 125.4 159.72C125.4 157.615 125.78 156.914 126.983 156.914C127.427 156.914 124.83 156.278 124.83 158ZM125.78 179.558C125.59 180.132 125.147 180.387 124.767 180.195C124.007 179.749 127.173 183.831 127.933 183.13C128.567 182.428 126.287 178.282 125.78 179.558ZM129.2 177.644C129.2 178.856 128.947 180.004 128.567 180.195C128.187 180.451 127.933 179.43 127.933 177.644C127.933 175.858 128.187 174.837 128.567 175.093C128.947 175.284 129.2 176.432 129.2 177.644ZM148.137 179.94C147.757 180.706 147.82 181.216 148.2 181.471C148.58 181.726 148.77 181.599 148.707 181.28C148.58 180.897 148.336 186.544 148.652 186.48C148.906 186.417 149.467 180.642 149.467 180.833C149.403 181.025 148.58 185.617 149.15 186.128C149.657 186.702 151.367 183.576 151.367 184.086C151.367 184.597 151.683 184.852 152 184.66C152.823 184.15 152.507 185.809 151.683 186.383C151.303 186.702 151.367 186.893 151.81 186.893C152.253 186.893 152.443 187.339 152.253 187.85C152 188.424 152.253 188.807 152.887 188.807C153.457 188.807 153.9 189.125 153.9 189.508C153.9 189.891 151.385 181.981 152.082 181.79C152.905 181.599 142.753 192.107 143.387 193C144.843 191.086 144.21 194.212 143.387 193C142.5 194.148 138.527 203.833 146 205C146.253 205.383 155.737 197.737 155.293 197.481C154.977 197.29 154.533 197.481 154.343 197.864C154.153 198.502 153.773 198.374 152.823 197.609C151.937 196.78 151.43 196.652 150.923 197.163C150.353 197.737 149.91 197.609 149.15 196.844C147.883 195.568 146.68 195.568 145.413 196.78C144.907 197.29 145.73 189.444 145.16 189.253C142.69 188.296 138.037 190.64 140 193C140.76 193.893 145.117 191.932 141 191.422C142.33 181.881 139.143 194.547 138.193 202.648C139.523 201.691 139.713 200.607 139.143 197.609C138.447 194.356 136.8 193.463 134.9 195.504C134.14 196.333 133.697 197.29 133.95 197.673C134.14 198.056 133.95 198.566 133.443 198.757C132.62 199.076 132.62 199.331 133.38 200.798C133.887 201.755 134.267 202.776 134.267 203.158C134.267 203.796 136.483 198.63 134.9 198.056C142.547 191.333 139.937 195.951 140 194.547C140.063 193.208 136.99 195.504 137.243 191.805C137.497 188.105 134.013 196.461 133.95 194.866L135.28 194.827L134.267 194.547C135.533 196.014 131.683 181.329 132 180.5C132.253 179.926 126.413 180.706 126.983 180.897C127.49 181.088 127.807 181.471 127.68 181.726C127.553 181.918 128.06 182.109 128.883 182.109C129.707 182.109 130.277 181.981 130.15 181.79C130.023 181.599 130.15 181.025 130.53 180.514C130.91 179.877 131.1 180.706 131.1 183.13C131.1 185.809 131.417 187.148 132.43 188.424C133.57 189.891 135.257 199.673 138 200.5C139.963 200.372 141.247 191.486 141.5 191.039C141.88 190.529 142.057 188.615 142.753 189.955C144.083 192.57 145.92 193.591 146.933 192.315C147.44 191.677 148.263 191.486 149.34 191.805C150.48 192.06 150.797 191.932 150.48 191.422C150.227 191.039 149.783 190.848 149.53 191.039C148.897 191.358 149.467 188.105 150.1 187.212C150.417 186.829 149.657 186.51 148.137 186.446C145.793 186.319 145.603 186.446 145.223 188.169C145.033 189.253 146.617 186.128 146.3 186.128C145.477 186.128 143.64 188.551 144.527 187.658C144.907 187.276 145.033 186.702 144.78 186.446C144.527 186.128 143.893 186.51 143.387 187.212C142.5 188.424 147.232 187.605 147.422 185.5C147.675 182.949 146.11 183.812 146.933 183.812C147.25 183.812 145.54 180.897 145.287 181.28C145.033 181.726 145.097 181.918 145.35 181.599C145.667 181.344 144.21 186.265 144.337 185.5C144.463 184.735 147.757 188.169 148.137 187.85C149.213 187.212 148.897 178.601 148.137 179.94ZM148.073 189.253C147.82 190.656 149.34 189.572 149.087 188.232C148.96 187.595 146.617 188.169 147.25 188.169C147.883 188.169 148.2 188.615 148.073 189.253ZM132.873 201.564C132.873 203.924 137.18 202.202 136.547 202.202C135.153 202.202 134.837 201.245 135.28 198.438C135.913 194.547 132.873 197.545 132.873 201.564ZM158.84 199.204C158.967 201.5 158.697 193.5 158 193.5C156.733 193.5 156.433 200.798 156.877 198.056C157.383 194.866 158.587 195.632 158.84 199.204ZM138.492 199.899C138.492 200.856 143.387 202.202 142.817 202.202C141.867 202.202 141.487 199.65 142.247 198.821C143.007 198.119 138.492 198.241 138.492 199.899ZM152.507 200.479C152.633 201.691 152.443 202.202 151.747 202.202C151.05 202.202 153 203.34 153 202C153 199.576 152.253 197.992 152.507 200.479ZM155.167 200.926C155.167 201.245 155.04 201.564 154.913 201.564C154.723 201.564 155.737 200.218 155.547 199.899C155.357 199.517 154.153 200.288 154.47 200.288C154.85 200.288 155.167 200.543 155.167 200.926ZM155.673 202.967C155.293 204.115 157.5 204.562 157.5 203.477C157.5 202.903 154.343 202.202 154.913 202.202C155.483 202.202 155.8 202.521 155.673 202.967Z" fill="black"/>
<path d="M124.64 169.543C125.02 171.457 126.477 172.031 127.68 170.819C129.073 169.416 128.123 167.821 126.097 167.949C124.64 168.076 124.387 168.331 124.64 169.543ZM127.3 169.288C127.3 169.798 127.047 170.436 126.667 170.628C126.35 170.819 126.033 170.436 126.033 169.735C126.033 168.969 126.35 168.395 126.667 168.395C127.047 168.395 127.3 168.778 127.3 169.288Z" fill="black"/>
<path d="M147.313 182.619C147.503 183.257 147.883 183.576 148.073 183.385C148.263 183.193 148.073 182.683 147.63 182.237C146.997 181.663 146.933 181.726 147.313 182.619Z" fill="black"/>
<path d="M123.12 187.85C122.74 188.807 123.247 190.082 124.007 190.082C124.26 190.082 124.83 189.827 125.337 189.508C126.097 188.998 126.097 188.743 125.463 187.914C124.387 186.638 123.563 186.638 123.12 187.85ZM124.577 188.934C124.387 189.444 124.197 189.253 124.197 188.551C124.133 187.85 124.323 187.467 124.513 187.722C124.703 187.914 124.767 188.488 124.577 188.934Z" fill="black"/>
<path d="M150.1 189.189C150.1 190.082 150.353 190.656 150.733 190.401C151.113 190.21 151.367 189.444 151.367 188.743C151.367 188.105 151.113 187.531 150.733 187.531C150.417 187.531 150.1 188.296 150.1 189.189Z" fill="black"/>
<path d="M123.563 194.739C122.677 195.632 122.677 198.693 123.627 200.224C124.64 201.883 125.78 200.671 126.16 197.609C126.413 195.058 124.957 193.335 123.563 194.739ZM124.577 199.14C124.45 199.969 124.323 199.331 124.323 197.737C124.323 196.142 124.45 195.504 124.577 196.27C124.703 197.099 124.703 198.374 124.577 199.14Z" fill="black"/>
<path d="M127.807 196.206C126.667 198.566 126.73 199.65 128.06 200.479C128.82 200.99 129.39 200.926 130.087 200.352C131.417 199.204 131.353 197.545 129.897 195.759L128.757 194.292L127.807 196.206ZM129.77 198.821C129.833 199.267 129.58 199.65 129.2 199.65C128.883 199.65 128.567 198.693 128.63 197.545C128.63 195.823 128.757 195.695 129.2 196.78C129.517 197.481 129.77 198.438 129.77 198.821Z" fill="black"/>
<path d="M48.83 157.041C47.4367 159.337 46.4233 170.053 46.55 181.79C46.74 193.591 47.4367 200.352 49.4633 209.218C50.0967 212.216 50.8567 215.342 51.0467 216.171C51.2367 217 51.6167 218.212 51.9967 218.914C52.3133 219.551 52.3767 220.062 52.1233 220.062C51.87 220.062 51.9967 220.381 52.3767 220.763C52.7567 221.146 52.9467 221.912 52.7567 222.486C52.44 223.187 52.5667 223.315 53.2 222.932C53.7067 222.613 53.8967 222.677 53.58 223.123C53.39 223.506 53.8967 225.356 54.72 227.333C55.5433 229.247 56.1133 230.969 55.86 231.16C55.67 231.352 55.86 231.543 56.24 231.543C56.6833 231.543 57 231.99 57 232.5C57 233.01 58.14 235.753 59.47 238.496C60.8633 241.302 61.75 243.79 61.56 244.045C61.3067 244.3 61.4333 244.3 61.8767 244.109C62.32 243.79 62.7633 244.364 63.0167 245.576C63.27 246.597 63.65 247.49 63.9033 247.49C64.1567 247.49 65.1067 248.957 66.12 250.743C67.07 252.529 68.1467 254.315 68.4633 254.761C68.78 255.144 70.2367 257.058 71.63 258.971C75.24 264.01 76.8867 265.86 83.3467 272.494C90.7567 280.084 92.0233 281.233 96.3933 284.294C98.42 285.698 99.8133 287.101 99.56 287.292C99.3067 287.547 99.4333 287.675 99.75 287.611C100.447 287.42 104.247 289.27 105.767 290.545C107.73 292.204 120.903 298.519 122.423 298.519C122.993 298.519 123.5 298.774 123.5 299.156C123.5 299.475 124.513 299.922 125.717 300.177C126.92 300.368 127.933 300.815 127.933 301.198C127.933 301.516 128.187 301.644 128.567 301.389C128.883 301.198 129.643 301.325 130.277 301.644C131.543 302.346 134.963 303.239 135.66 303.111C135.913 303.047 136.8 303.239 137.56 303.558C138.383 303.813 139.587 303.877 140.283 303.558C141.423 303.111 141.487 303.047 140.347 303.047C138.953 302.984 124.703 298.582 123.817 297.881C123.5 297.626 121.79 296.924 120.017 296.286C118.307 295.648 116.343 294.628 115.647 294.117C115.013 293.543 114.38 293.161 114.253 293.288C113.937 293.479 108.173 290.8 107.667 290.226C107.477 290.035 90.7733 266.521 89 265.5C79.8167 260.27 92.5933 272.111 86.1967 263.436C85.1833 262.16 81.51 257.504 81.1933 257.121C78.5967 253.741 73.5133 243.85 72.5 242C71.8667 240.788 66.5 248.765 66.12 248.319C70.68 250.743 72.5 248.319 71.63 241C66.31 230.093 55.7333 227.333 55.7333 226.185C55.7333 225.611 55.48 225.165 55.1633 225.165C54.91 225.165 54.4667 224.208 54.2767 223.06C54.0233 221.975 57.6333 215 58.7725 210.5C55.8592 200.358 52.5033 203.523 51.6167 190C50.6667 175.457 48.64 156.276 50.7933 156.276C51.3633 156.276 48.5767 154.146 48.83 165.5C48.9567 170.029 48.45 178.385 48.83 181C49.21 183.615 50.6667 195.416 50.7933 196.5C51.3 200.582 57.1267 206.22 57.6333 207.241C57.95 207.815 54.0867 213.364 54.8467 216.171C55.6067 218.977 52.3767 226.823 56.1767 225.165C54.2133 228.545 58.71 233.145 59.47 235.25C65.5 241 68.5267 236.71 69.4767 237.794C69.8567 238.177 70.4267 239.198 70.68 239.963C70.87 240.728 72.0733 242.833 73.2133 244.683C74.4167 246.533 75.3667 248.319 75.3667 248.702C75.3667 249.021 75.7467 249.722 76.19 250.169C76.6333 250.615 77.52 251.891 78.2167 252.975C78.9133 254.06 80.2433 255.973 81.1933 257.121C82.1433 258.333 84.4233 261.14 86.1967 263.436C89.3633 267.391 98.3667 281 99 281C99.19 281 103.423 286.272 104.5 287.292C107.477 289.971 104.37 287.859 109.5 291.303C112.097 293.025 122.55 300.432 123.817 295.648C124.703 296.286 121.1 298.062 120.017 296.286C121.41 296.988 123.585 297.562 125.295 298.519C127.069 299.412 131.319 300.623 131.636 300.623C131.952 300.623 137.712 304.068 135.66 301.198C136.23 301.644 141.107 304.451 140.347 301.516C141.93 302.027 140.22 301.772 140.917 302.091C142.057 302.537 142.057 302.473 141.297 301.516C140.853 300.942 140.157 300.432 139.777 300.432C138.827 300.432 130.847 296.414 130.34 295.648C130.087 295.265 129.833 295.202 129.833 295.521C129.833 296.158 117.483 289.588 116.533 288.377C116.153 287.93 114 286.527 112.733 285.953C112.227 285.698 111.657 285.379 111.467 285.187C111.277 284.932 109.503 283.656 107.413 282.253C105.387 280.85 103.297 279.128 102.853 278.426C102.347 277.724 101.967 277.469 101.967 277.788C101.967 278.107 98.7367 275.109 94.81 271.091C87.7167 263.819 82.3333 257.185 82.3333 255.718C82.3333 255.272 82.1433 255.144 81.89 255.335C81.7 255.591 81.0667 255.144 80.4967 254.315C79.9267 253.549 79.6733 252.912 79.8 252.848C79.99 252.848 79.6733 252.337 79.1667 251.763C77.2033 249.658 76.76 248.957 76.3167 247.426C76.0633 246.597 75.1767 245.002 74.4167 243.981C72.2 241.111 66.4367 229.247 64.6 223.889C64.1567 222.677 63.5867 221.082 63.3333 220.381C61.6867 216.298 57.8233 203.477 57.4433 200.607C57.2533 199.523 56.6833 196.971 56.1767 194.866C55.67 192.761 55.0367 189.572 54.8467 187.85C54.6567 186.064 54.2133 182.619 53.8333 180.195C53.4533 177.708 53.01 171.457 52.8833 166.29C52.6933 161.06 52.44 156.531 52.25 156.212C51.5533 155.191 49.7167 155.574 48.83 157.041Z" fill="#AD0606"/>
<path d="M65.4233 157.743C63.65 161.506 63.27 163.292 62.6366 169.288C62.0033 175.858 61.8766 186.191 62.3833 189.955C63.2066 196.142 63.3966 197.545 63.7133 198.566C63.9666 199.268 64.22 200.416 64.2833 201.117C65.17 206.412 72.8966 225.802 74.1633 225.802C74.4166 225.802 74.9866 226.823 75.3666 228.035C75.7466 229.247 76.3166 230.268 76.5066 230.268C76.76 230.268 77.33 231.097 77.7733 232.054C78.1533 233.074 79.04 234.414 79.6733 235.115C81.0033 236.646 83.6 240.346 83.6 240.665C83.6 240.92 86.1966 243.79 92.8466 250.807C94.7466 252.848 96.5833 254.506 96.8999 254.506C97.2799 254.506 97.4699 254.825 97.3433 255.208C97.2799 255.591 98.1666 256.42 99.2433 256.994C100.383 257.632 101.143 258.333 100.89 258.588C100.7 258.78 100.763 258.971 101.143 258.971C101.523 258.971 103.423 260.247 105.387 261.778C107.35 263.309 109.82 264.903 110.833 265.35C111.847 265.796 112.543 266.434 112.29 266.753C112.1 267.136 112.29 267.327 112.797 267.136C113.303 266.944 114 267.136 114.443 267.519C116.597 269.432 117.167 269.815 118.117 269.815C118.623 269.815 119.067 270.134 119.067 270.516C119.067 270.835 119.383 270.963 119.7 270.772C120.08 270.58 120.333 270.644 120.333 270.963C120.333 271.282 121.663 272.047 123.373 272.685C125.02 273.323 127.49 274.407 128.883 275.109C130.277 275.875 131.733 276.385 132.113 276.321C132.557 276.257 134.14 276.768 135.787 277.405C137.37 278.107 138.7 278.554 138.7 278.426C138.7 278.235 139.46 278.426 140.473 278.809C141.423 279.191 142.753 279.638 143.45 279.702C144.147 279.829 145.603 280.084 146.617 280.34C154.66 282.126 174.547 282.381 182.527 280.85C185.06 280.34 187.657 280.084 188.29 280.276C188.86 280.403 189.24 280.276 188.987 279.957C188.797 279.638 189.05 279.319 189.493 279.255C189.937 279.255 190.633 279.128 190.95 279.128C191.33 279.064 191.963 278.809 192.407 278.554C192.787 278.235 193.167 278.171 193.167 278.426C193.167 278.617 194.053 278.298 195.067 277.788C196.207 277.214 197.663 276.959 198.423 277.15C199.5 277.469 199.627 277.405 198.867 276.895C198.107 276.321 198.17 276.193 199.373 276.193C200.197 276.193 202.477 275.428 204.44 274.535C209.19 272.366 220.59 265.924 221.097 265.158C221.35 264.84 221.857 264.776 222.237 264.967C222.617 265.222 222.87 265.158 222.807 264.84C222.68 264.521 224.073 263.117 225.783 261.65C230.47 257.887 236.993 251.381 239.4 248.128C240.603 246.533 241.743 245.13 241.933 244.938C242.123 244.747 243.58 242.578 245.163 240.154C248.14 235.626 251.307 229.183 254.03 222.294C254.853 220.189 255.677 218.34 255.867 218.148C256.057 217.957 256.183 217.255 256.183 216.554C256.183 215.852 256.437 214.959 256.69 214.512C257.577 213.237 257.893 206.475 257.133 205.391C256.563 204.562 256.247 204.753 254.917 206.348C254.03 207.368 253.333 208.58 253.333 208.963C253.333 210.047 246.24 224.016 244.973 225.42C244.34 226.121 243.833 226.887 243.833 227.142C243.833 227.525 241.997 230.012 237.627 235.37C235.157 238.368 230.66 243.025 230.217 243.025C230.09 243.025 229.14 243.79 228.19 244.683C225.15 247.49 218.943 252.019 218.627 251.636C218.437 251.444 217.867 251.891 217.423 252.593C216.917 253.294 216.22 253.741 215.903 253.549C215.587 253.294 215.333 253.358 215.333 253.677C215.333 254.379 211.66 256.42 210.393 256.42C209.887 256.42 208.937 256.866 208.303 257.44C207.733 257.951 206.847 258.461 206.34 258.588C205.897 258.652 203.933 259.29 202.033 260.056C196.903 262.033 196.143 262.352 195.067 262.479C194.56 262.607 192.533 263.117 190.633 263.691C187.467 264.648 186.073 264.967 182.083 265.541C181.387 265.669 180.5 265.924 180.183 266.115C179.803 266.307 178.727 266.37 177.65 266.307C176.637 266.243 172.963 266.434 169.543 266.753C166.123 267.072 162.83 267.2 162.26 266.944C161.69 266.689 159.03 266.434 156.433 266.307C152 266.115 149.783 265.796 146.617 265.031C135.343 262.352 125.083 258.971 124.07 257.504C123.88 257.185 123.5 256.994 123.247 257.058C122.487 257.249 115.9 254.315 115.9 253.741C115.9 253.486 115.52 253.23 115.077 253.23C113.873 253.23 102.283 244.938 97.5966 240.792C93.6699 237.284 92.7833 236.327 90.3133 233.265C88.92 231.607 86.8933 229.119 85.69 227.844C84.55 226.568 83.22 224.718 82.84 223.761C82.3966 222.805 81.8266 221.975 81.5733 221.975C81.2566 221.975 81.0666 221.593 81.0666 221.082C81.0666 220.572 80.8766 220.062 80.6233 219.934C79.61 219.488 76.57 212.981 77.0133 212.28C77.2666 211.833 77.2666 211.642 76.95 211.897C76.4433 212.407 74.7966 209.792 74.4166 207.815C74.29 207.241 73.72 205.901 73.2133 204.817C72.6433 203.733 72.3266 202.84 72.58 202.84C72.8333 202.84 72.6433 202.393 72.2 201.883C71.7566 201.372 71.63 200.926 71.8833 200.926C72.1366 200.926 72.0733 200.543 71.6933 200.097C71.3133 199.65 70.87 198.438 70.6166 197.418C69.8566 193.399 68.59 185.872 68.5266 184.979C68.5266 184.469 68.2733 180.514 68.0833 176.305C67.7666 170.819 67.83 168.395 68.3366 168.14C68.7166 167.885 68.9066 167.438 68.78 167.183C68.59 166.928 68.4 164.44 68.3366 161.761C68.2733 158.508 68.02 157.041 67.5766 157.488C67.26 157.807 63.7766 162.982 63.7133 171.147C63.65 184.287 62 197 69.0333 195.504C69.2866 196.206 69.9833 198.502 70.6166 200.607C72.6433 207.879 79.4833 222.549 81.13 223.123C81.4466 223.251 81.7 223.634 81.7 224.016C81.7 224.973 90.63 235.881 94.4933 239.58C98.23 243.152 105.007 248.638 108.047 250.424C109.123 251.126 112.1 252.848 114.57 254.379C117.04 255.909 113.43 262.097 114.57 262.479C99.2433 259.226 128.693 274.864 129.263 275.311C129.833 275.821 153.81 269.191 154 269C154.253 268.809 126.603 259.928 127.427 260.438C133.253 264.074 125.903 276.696 138 276.696C147.12 276.696 188.733 266.179 194.117 264.138C195.193 263.755 203.933 260.693 206.15 259.992C210.773 258.525 221.413 252.082 227.303 247.171C239.02 237.539 250.293 221.848 254.917 208.772C256.057 205.582 256.268 202.584 255.762 205.391C254.317 205.391 254.526 209.097 254.273 210.5C254.02 211.903 255.423 214.321 255.107 214.768C254.79 215.214 254.663 215.852 254.853 216.171C255.107 216.49 255.752 207.305 255.436 207.496C255.119 207.687 250.253 216.171 250 217.128C249.557 219.041 227.122 252.043 235 251C230.367 251.614 240.27 233.406 239.763 234.491C236.302 238.991 216.093 252.413 210.393 258.154C207.037 261.598 225.91 260.247 225.53 260.247C225.15 260.247 224.833 260.502 224.833 260.757C224.833 261.523 217.97 254.251 211.764 257.44C208.787 258.971 196.27 262.671 193.167 263.691C190.127 264.648 186.282 266.307 185.142 266.753C176.655 270.325 192.82 270.708 183.7 267.136C179.836 265.669 132.557 274.918 131.48 274.918C130.91 274.918 130.467 274.599 130.467 274.28C130.467 273.897 129.897 273.642 129.263 273.642C126.793 273.642 106.59 262.097 104.183 259.226C117.5 273 120.523 258.014 119.7 257.504C116.66 255.463 99.94 246.13 92.8466 237.902C85.9433 229.928 74.7333 215.07 71.8833 204.482C67.8933 189.811 62.2566 174.455 65.2333 161.698C66.4366 156.34 66.5 155.319 65.4233 157.743Z" fill="#AD0606"/>
<path d="M93.4801 261.331C92.2768 262.543 93.6068 264.712 98.7368 269.687C101.777 272.749 104.753 275.556 105.26 276.002C109.123 279 116.217 283.848 117.23 284.167C117.927 284.422 118.243 284.868 118.053 285.251C117.8 285.698 117.927 285.761 118.307 285.506C118.75 285.251 119.067 285.379 119.067 285.761C119.067 286.144 119.32 286.335 119.637 286.144C119.953 285.953 120.397 286.208 120.587 286.718C120.777 287.228 121.157 287.675 121.41 287.611C122.36 287.484 124.767 288.44 124.767 289.014C124.767 289.333 125.273 289.588 125.907 289.588C126.54 289.588 128.25 290.163 129.707 290.864C131.1 291.566 132.683 292.14 133.127 292.14C133.633 292.14 134.647 292.586 135.407 293.16C136.167 293.671 137.117 293.926 137.433 293.735C137.813 293.543 138.447 293.543 138.89 293.862C139.27 294.117 140.347 294.436 141.233 294.5C142.12 294.628 143.387 295.01 144.083 295.329C146.173 296.222 156.877 297.307 164.35 297.243C171.443 297.243 172.773 297.115 178.093 295.903C179.74 295.521 181.387 295.393 181.767 295.648C182.083 295.84 182.4 295.776 182.4 295.393C182.4 295.01 183.477 294.564 184.807 294.372C186.073 294.117 189.62 292.969 192.597 291.757C195.637 290.545 198.36 289.588 198.74 289.588C199.057 289.588 199.69 289.142 200.133 288.632C200.577 288.121 201.147 287.802 201.4 287.994C201.653 288.185 202.223 287.866 202.667 287.356C203.11 286.846 203.87 286.399 204.313 286.399C204.82 286.399 205.2 286.208 205.2 285.889C205.2 285.634 206.213 284.868 207.48 284.167C210.457 282.572 212.167 281.041 212.167 279.957C212.103 279.319 211.913 279.383 211.47 280.148C211.153 280.786 210.457 281.296 209.95 281.296C209.507 281.296 209 281.551 208.873 281.807C208.62 282.572 195.32 285.123 194.18 285.123C193.673 285.123 194.243 289.333 193.863 289.844C193.483 290.354 192.47 290.864 191.71 291.056C190.95 291.247 188.733 291.885 186.833 292.459C176.763 295.393 169.66 291.374 157.5 291.056C151.42 290.928 149.083 291.247 147.5 290.864C145.917 290.418 146.68 293.926 146.3 293.862C145.983 293.798 158.261 291.809 151.557 292.459C157.89 290.864 162.83 293.607 161.5 293.352C158.08 292.714 130.72 283.084 129.453 281.681C129.073 281.234 120.523 276.654 119.637 276.271C117.357 275.251 102.093 271.728 97.7234 267.072C93.3534 262.479 92.3236 261.405 95.3003 263C96.377 263.574 95.3003 264.073 95.3003 264.392C95.3003 264.711 91.8733 261.569 93.0767 262.143C97.5 263.5 92.3149 264.491 95.2817 263.5C93.518 265.3 101.727 271.479 103.5 272.5C105.273 273.521 110.073 272.366 112.037 273.514C115.267 275.428 117.547 276.576 123.183 279.128C130.593 282.508 150.86 291.63 161.5 293.352C172.9 295.202 173.977 294.032 178.853 293.521C181.513 293.266 203.427 289.474 194.18 287.611C195.447 287.866 207.48 281.296 199.183 283.274C199.88 282.955 203.277 284.549 206 283.656C208.787 282.827 210.583 279.319 210.773 278.872C210.963 278.298 210.583 278.235 209.38 278.745C208.177 279.191 207.733 279.128 207.733 278.553C207.733 278.107 207.417 278.235 207.1 278.809C206.593 279.702 204.25 280.531 199.373 281.679C199.057 281.743 198.803 281.807 198.74 281.934C198.613 281.998 198.043 282.125 197.473 282.253C196.903 282.381 195.383 282.763 194.18 283.21C192.913 283.593 190.507 283.975 188.797 284.039C187.087 284.103 185.82 284.422 186.01 284.677C186.2 284.996 185.947 285.123 185.503 285.06C184.997 284.996 184.11 285.123 183.54 285.379C182.907 285.698 181.577 285.57 180.5 285.187C179.423 284.868 178.663 284.741 178.853 284.996C179.043 285.315 176.827 285.825 173.977 286.272C169.037 286.909 162.007 286.846 155.8 286.016C154.217 285.825 152.95 285.698 152.95 285.825C152.95 285.889 152.317 285.634 151.557 285.187C150.543 284.677 150.1 284.677 150.1 285.123C150.1 285.57 149.72 285.634 148.96 285.187C148.263 284.805 147.25 284.549 146.553 284.549C144.907 284.549 142.057 284.039 141.423 283.656C141.107 283.465 139.65 283.146 138.067 282.891C136.483 282.636 134.963 282.253 134.583 282.062C134.267 281.807 133.38 281.551 132.683 281.488C131.987 281.36 131.163 280.977 130.847 280.658C130.467 280.276 129.833 280.021 129.453 280.021C129.01 280.021 127.87 279.702 126.857 279.255C125.907 278.872 124.767 278.49 124.387 278.426C122.803 278.043 111.467 272.175 110.77 271.346C110.39 270.835 109.82 270.453 109.503 270.453C108.363 270.453 98.4834 263.245 98.6734 262.607C98.8001 262.16 98.7367 262.033 98.4834 262.288C98.2301 262.479 97.1534 262.288 95.9501 261.842C94.8101 261.331 93.7334 261.14 93.4801 261.331Z" fill="#AD0606"/>
<path d="M216.671 215.327C216.481 215.71 215.974 215.837 215.594 215.646C215.214 215.391 215.088 215.455 215.278 215.774C215.468 216.156 215.088 217.623 214.454 219.09C213.188 221.897 213.314 221.833 207.994 221.961C207.044 222.025 206.411 222.216 206.601 222.471C206.728 222.726 206.411 223.045 205.904 223.3C204.511 223.811 204.764 225.979 206.411 227.127C210.148 229.743 210.274 229.934 209.324 231.146C208.564 232.039 208.564 232.167 209.324 231.656C210.021 231.274 210.148 231.401 209.768 232.358C207.931 236.823 209.261 240.14 212.364 238.928C213.251 238.609 214.834 237.716 215.911 236.951C216.988 236.185 217.621 235.93 217.304 236.504C216.861 237.269 216.924 237.269 217.748 236.568C218.318 236.121 218.888 235.994 219.014 236.249C219.331 237.014 224.144 239.438 225.221 239.374C225.918 239.311 226.171 238.545 226.108 236.121C226.108 234.335 225.854 232.486 225.601 231.911C225.284 231.21 226.044 229.998 228.071 227.893C230.604 225.278 230.858 224.704 230.161 223.811C228.894 222.152 228.261 221.833 226.868 222.152C224.018 222.726 222.181 221.769 221.168 219.154C220.598 217.751 220.281 216.348 220.408 216.093C220.598 215.837 220.408 215.582 219.964 215.582C219.521 215.582 218.761 215.327 218.191 215.136C217.558 214.881 216.924 215.008 216.671 215.327ZM219.521 220.047C216.671 223.3 220.218 221.897 221.104 222.79C222.434 224.13 218.884 228.162 221.354 228.098C223.001 228.034 218.832 228.786 219.148 228.786C219.402 228.85 219.521 229.009 217.748 230.476C215.024 232.772 223.384 229.998 223.701 231.337C223.891 232.23 219.394 223.811 219.521 224.448C219.648 225.086 218.824 230.64 219.014 231.341C219.584 233.127 223.828 229.615 220.408 227.127L221.168 226.239L213.098 225.239C209.615 227.726 209.578 238.418 210.654 236.44C211.034 235.739 211.161 235.165 211.034 235.165C210.844 235.165 211.161 233.953 211.668 232.422C212.618 229.806 212.554 229.743 211.161 228.786C208.501 227 222.308 230.214 222.688 229.831C222.878 229.64 207.551 224.002 208.311 224.002C209.071 223.938 221.168 233.442 222.688 233.379C224.525 233.315 215.088 223.428 215.088 222.79C215.088 222.28 215.658 220.494 216.418 218.772L217.748 215.71L213.098 224.448C213.605 225.341 235.508 243.047 219.521 220.047Z" fill="#F5F5F5"/>
<path d="M262.663 116.28C262.473 116.663 261.966 116.79 261.586 116.599C261.206 116.344 261.08 116.407 261.27 116.726C261.46 117.109 261.08 118.576 260.446 120.043C259.18 122.85 259.306 122.786 253.986 122.914C253.036 122.977 252.403 123.169 252.593 123.424C252.72 123.679 252.403 123.998 251.896 124.253C250.503 124.763 250.756 126.932 252.403 128.08C256.14 130.695 256.266 130.887 255.316 132.099C254.556 132.992 254.556 133.119 255.316 132.609C256.013 132.226 256.14 132.354 255.76 133.311C253.923 137.776 255.253 141.093 258.356 139.881C259.243 139.562 260.826 138.669 261.903 137.903C262.98 137.138 263.613 136.883 263.296 137.457C262.853 138.222 262.916 138.222 263.74 137.521C264.31 137.074 264.88 136.946 265.006 137.202C265.323 137.967 270.136 140.391 271.213 140.327C271.91 140.263 272.163 139.498 272.1 137.074C272.1 135.288 271.846 133.438 271.593 132.864C271.276 132.162 272.036 130.951 274.063 128.846C276.596 126.23 276.85 125.656 276.153 124.763C274.886 123.105 274.253 122.786 272.86 123.105C270.01 123.679 268.173 122.722 267.16 120.107C266.59 118.704 266.273 117.3 266.4 117.045C266.59 116.79 266.4 116.535 265.956 116.535C265.513 116.535 264.753 116.28 264.183 116.088C263.55 115.833 262.916 115.961 262.663 116.28ZM265.513 121C262.663 124.253 266.21 122.85 267.096 123.743C268.426 125.082 264.876 129.114 267.346 129.051C268.993 128.987 264.824 129.739 265.14 129.739C265.394 129.802 265.513 129.961 263.74 131.429C261.016 133.725 269.376 130.951 269.693 132.29C269.883 133.183 265.386 124.763 265.513 125.401C265.64 126.039 264.816 131.592 265.006 132.294C265.576 134.08 269.82 130.568 266.4 128.08L267.16 127.191L259.09 126.191C255.607 128.679 255.57 139.37 256.646 137.393C257.026 136.691 257.153 136.117 257.026 136.117C256.836 136.117 257.153 134.905 257.66 133.374C258.61 130.759 258.546 130.695 257.153 129.739C254.493 127.953 268.3 131.166 268.68 130.784C268.87 130.592 253.543 124.955 254.303 124.955C255.063 124.891 267.16 134.395 268.68 134.331C270.517 134.267 261.08 124.381 261.08 123.743C261.08 123.232 261.65 121.446 262.41 119.724L263.74 116.663L259.09 125.401C259.597 126.294 281.5 144 265.513 121Z" fill="#F5F5F5"/>
<path d="M218.663 84.2798C218.473 84.6625 217.966 84.7901 217.586 84.5987C217.206 84.3436 217.08 84.4074 217.27 84.7263C217.46 85.109 217.08 86.5761 216.446 88.0432C215.18 90.8498 215.306 90.786 209.986 90.9136C209.036 90.9773 208.403 91.1687 208.593 91.4238C208.72 91.679 208.403 91.9979 207.896 92.2531C206.503 92.7634 206.756 94.9321 208.403 96.0802C212.14 98.6955 212.266 98.8868 211.316 100.099C210.556 100.992 210.556 101.119 211.316 100.609C212.013 100.226 212.14 100.354 211.76 101.311C209.923 105.776 211.253 109.093 214.356 107.881C215.243 107.562 216.826 106.669 217.903 105.903C218.98 105.138 219.613 104.883 219.296 105.457C218.853 106.222 218.916 106.222 219.74 105.521C220.31 105.074 220.88 104.946 221.006 105.202C221.323 105.967 226.136 108.391 227.213 108.327C227.91 108.263 228.163 107.498 228.1 105.074C228.1 103.288 227.846 101.438 227.593 100.864C227.276 100.162 228.036 98.9506 230.063 96.8457C232.596 94.2304 232.85 93.6564 232.153 92.7634C230.886 91.1049 230.253 90.786 228.86 91.1049C226.01 91.679 224.173 90.7222 223.16 88.107C222.59 86.7037 222.273 85.3004 222.4 85.0452C222.59 84.7901 222.4 84.535 221.956 84.535C221.513 84.535 220.753 84.2798 220.183 84.0885C219.55 83.8333 218.916 83.9609 218.663 84.2798ZM221.513 89C218.663 92.2531 222.21 90.8498 223.096 91.7428C224.426 93.0823 220.876 97.1144 223.346 97.0507C224.993 96.9869 220.824 97.7387 221.14 97.7387C221.394 97.8025 221.513 97.9615 219.74 99.4286C217.016 101.725 225.376 98.9506 225.693 100.29C225.883 101.183 221.386 92.7634 221.513 93.4012C221.64 94.0391 220.816 99.5925 221.006 100.294C221.576 102.08 225.82 98.5679 222.4 96.0802L223.16 95.1914L215.09 94.1914C211.607 96.679 211.57 107.37 212.646 105.393C213.026 104.691 213.153 104.117 213.026 104.117C212.836 104.117 213.153 102.905 213.66 101.374C214.61 98.7592 214.546 98.6955 213.153 97.7387C210.493 95.9527 224.3 99.1665 224.68 98.7838C224.87 98.5924 209.543 92.9547 210.303 92.9547C211.063 92.8909 223.16 102.395 224.68 102.331C226.517 102.267 217.08 92.3806 217.08 91.7428C217.08 91.2325 217.65 89.4465 218.41 87.7243L219.74 84.6625L215.09 93.4012C215.597 94.2942 237.5 112 221.513 89Z" fill="#F5F5F5"/>
<path d="M218.663 84.2798C218.473 84.6625 217.966 84.7901 217.586 84.5987C217.206 84.3436 217.08 84.4074 217.27 84.7263C217.46 85.109 217.08 86.5761 216.446 88.0432C215.18 90.8498 215.306 90.786 209.986 90.9136C209.036 90.9773 208.403 91.1687 208.593 91.4238C208.72 91.679 208.403 91.9979 207.896 92.2531C206.503 92.7634 206.756 94.9321 208.403 96.0802C212.14 98.6955 212.266 98.8868 211.316 100.099C210.556 100.992 210.556 101.119 211.316 100.609C212.013 100.226 212.14 100.354 211.76 101.311C209.923 105.776 211.253 109.093 214.356 107.881C215.243 107.562 216.826 106.669 217.903 105.903C218.98 105.138 219.613 104.883 219.296 105.457C218.853 106.222 218.916 106.222 219.74 105.521C220.31 105.074 220.88 104.946 221.006 105.202C221.323 105.967 226.136 108.391 227.213 108.327C227.91 108.263 228.163 107.498 228.1 105.074C228.1 103.288 227.846 101.438 227.593 100.864C227.276 100.162 228.036 98.9506 230.063 96.8457C232.596 94.2304 232.85 93.6564 232.153 92.7634C230.886 91.1049 230.253 90.786 228.86 91.1049C226.01 91.679 224.173 90.7222 223.16 88.107C222.59 86.7037 222.273 85.3004 222.4 85.0452C222.59 84.7901 222.4 84.535 221.956 84.535C221.513 84.535 220.753 84.2798 220.183 84.0885C219.55 83.8333 218.916 83.9609 218.663 84.2798ZM221.513 89C218.663 92.2531 222.21 90.8498 223.096 91.7428C224.426 93.0823 220.876 97.1144 223.346 97.0507C224.993 96.9869 220.824 97.7387 221.14 97.7387C221.394 97.8025 221.513 97.9615 219.74 99.4286C217.016 101.725 225.376 98.9506 225.693 100.29C225.883 101.183 221.386 92.7634 221.513 93.4012C221.64 94.0391 220.816 99.5925 221.006 100.294C221.576 102.08 225.82 98.5679 222.4 96.0802L223.16 95.1914L215.09 94.1914C211.607 96.679 211.57 107.37 212.646 105.393C213.026 104.691 213.153 104.117 213.026 104.117C212.836 104.117 213.153 102.905 213.66 101.374C214.61 98.7592 214.546 98.6955 213.153 97.7387C210.493 95.9527 224.3 99.1665 224.68 98.7838C224.87 98.5924 209.543 92.9547 210.303 92.9547C211.063 92.8909 223.16 102.395 224.68 102.331C226.517 102.267 217.08 92.3806 217.08 91.7428C217.08 91.2325 217.65 89.4465 218.41 87.7243L219.74 84.6625L215.09 93.4012C215.597 94.2942 237.5 112 221.513 89Z" fill="#F5F5F5"/>
<path d="M232.911 167.886C232.777 168.151 232.421 168.239 232.153 168.107C231.886 167.93 231.797 167.974 231.931 168.195C232.064 168.46 231.797 169.476 231.351 170.491C230.46 172.434 230.549 172.39 226.805 172.479C226.137 172.523 225.691 172.655 225.825 172.832C225.914 173.009 225.691 173.229 225.335 173.406C224.354 173.759 224.532 175.261 225.691 176.056C228.321 177.866 228.41 177.999 227.741 178.838C227.206 179.456 227.206 179.544 227.741 179.191C228.231 178.926 228.321 179.014 228.053 179.677C226.761 182.768 227.697 185.064 229.88 184.225C230.504 184.004 231.619 183.386 232.376 182.856C233.134 182.326 233.58 182.15 233.357 182.547C233.045 183.077 233.089 183.077 233.669 182.591C234.07 182.282 234.471 182.194 234.56 182.37C234.783 182.9 238.17 184.578 238.928 184.534C239.418 184.49 239.596 183.96 239.552 182.282C239.552 181.046 239.373 179.765 239.195 179.368C238.972 178.882 239.507 178.043 240.933 176.585C242.716 174.775 242.894 174.378 242.404 173.759C241.513 172.611 241.067 172.39 240.087 172.611C238.081 173.009 236.789 172.346 236.075 170.536C235.674 169.564 235.452 168.593 235.541 168.416C235.674 168.239 235.541 168.063 235.229 168.063C234.917 168.063 234.382 167.886 233.981 167.754C233.535 167.577 233.089 167.665 232.911 167.886ZM234.917 171.154C232.911 173.406 235.407 172.434 236.031 173.053C236.967 173.98 234.469 176.772 236.207 176.727C237.366 176.683 234.431 177.204 234.654 177.204C234.833 177.248 234.917 177.358 233.669 178.374C231.752 179.963 237.635 178.043 237.858 178.97C237.992 179.588 234.828 173.759 234.917 174.201C235.006 174.642 234.426 178.487 234.56 178.973C234.961 180.209 237.947 177.778 235.541 176.056L236.075 175.44L230.397 174.748C227.945 176.47 227.92 183.872 228.677 182.503C228.945 182.017 229.034 181.62 228.945 181.62C228.811 181.62 229.034 180.781 229.39 179.721C230.059 177.91 230.014 177.866 229.034 177.204C227.162 175.967 236.878 178.192 237.145 177.927C237.279 177.795 226.493 173.892 227.028 173.892C227.563 173.848 236.076 180.427 237.145 180.383C238.438 180.339 231.797 173.494 231.797 173.053C231.797 172.699 232.198 171.463 232.733 170.271L233.669 168.151L230.397 174.201C230.753 174.819 246.167 187.077 234.917 171.154Z" fill="#F5F5F5"/>
</svg>
