<svg width="512" height="512" viewBox="0 0 512 512" fill="none" xmlns="http://www.w3.org/2000/svg">
<path d="M480.178 0.00100708H256.007C256.004 0.00100708 256.002 0.00100708 255.999 0.00100708C255.996 0.00100708 255.994 0.00100708 255.991 0.00100708H31.822C14.275 0.00100708 0 14.276 0 31.823V255.993V480.163C0 497.71 14.275 511.985 31.822 511.985H255.697C255.796 511.988 255.893 512 255.992 512H480.163C497.71 512 511.985 497.725 511.985 480.178V256.289C511.988 256.19 512 256.093 512 255.994V31.823C512 14.276 497.725 0.00100708 480.178 0.00100708ZM25.458 31.823C25.458 28.314 28.313 25.459 31.822 25.459H243.278V88.028C233.84 81.446 222.778 77.98 211.121 77.98C195.718 77.98 181.338 84.077 170.628 95.147C159.922 106.215 154.308 120.801 154.821 136.22C155.81 166.006 179.881 189.947 209.62 190.721C221.669 191.037 233.494 187.49 243.277 180.692V243.263H162.666C155.636 243.263 149.937 248.963 149.937 255.992V256.506C149.937 265.643 153.024 274.457 158.864 281.993C163.244 287.645 165.459 294.465 165.27 301.714C164.853 317.733 151.44 331.199 135.373 331.734C126.911 331.991 118.912 328.94 112.847 323.072C106.779 317.203 103.437 309.319 103.437 300.876C103.437 293.988 105.629 287.494 109.776 282.096C115.667 274.427 118.782 265.48 118.782 256.226V255.991C118.782 248.962 113.083 243.262 106.053 243.262H25.458V31.823ZM255.99 393.202C248.96 393.202 243.261 398.901 243.261 405.931V486.527H31.822C28.313 486.528 25.458 483.673 25.458 480.164V268.721H88.027C81.445 278.159 77.98 289.221 77.98 300.878C77.98 316.282 84.077 330.662 95.149 341.371C105.752 351.628 119.584 357.211 134.284 357.209C134.928 357.209 135.575 357.199 136.22 357.177C166.006 356.188 189.947 332.117 190.721 302.377C191.034 290.345 187.488 278.504 180.692 268.721H243.264V349.317C243.264 356.347 248.963 362.046 255.993 362.046H256.507C265.646 362.046 274.46 358.958 281.995 353.117C287.645 348.74 294.465 346.506 301.716 346.713C317.735 347.129 331.201 360.54 331.734 376.609C332.015 385.071 328.939 393.072 323.072 399.136C317.201 405.205 309.32 408.546 300.877 408.546C293.989 408.546 287.495 406.354 282.097 402.207C274.425 396.315 265.48 393.201 256.227 393.201H255.99V393.202ZM480.163 486.542H268.72V423.957C278.158 430.54 289.22 434.005 300.877 434.005C316.28 434.005 330.66 427.908 341.368 416.838C352.074 405.772 357.688 391.184 357.176 375.765C356.187 345.978 332.116 322.038 302.377 321.264C290.339 320.953 278.503 324.496 268.718 331.293V268.736H349.314C356.344 268.736 362.043 263.036 362.043 256.007V255.493C362.043 246.355 358.956 237.542 353.115 230.006C348.736 224.354 346.52 217.534 346.709 210.284C347.125 194.266 360.538 180.8 376.606 180.266C385.071 180.01 393.068 183.06 399.133 188.928C405.202 194.798 408.543 202.681 408.543 211.124C408.543 218.012 406.351 224.506 402.205 229.904C396.313 237.574 393.198 246.52 393.198 255.774V256.009C393.198 263.038 398.897 268.738 405.927 268.738H486.523V480.177H486.526C486.527 483.687 483.672 486.542 480.163 486.542ZM486.543 243.279H423.958C430.539 233.841 434.005 222.779 434.005 211.122C434.005 195.719 427.908 181.338 416.836 170.628C405.768 159.923 391.17 154.298 375.764 154.821C345.976 155.81 322.037 179.881 321.263 209.621C320.95 221.652 324.496 233.494 331.292 243.277H268.735V162.666C268.735 155.637 263.036 149.937 256.006 149.937H255.492C246.354 149.937 237.539 153.025 230.004 158.866C224.352 163.246 217.522 165.461 210.283 165.27C194.264 164.854 180.798 151.443 180.265 135.374C179.984 126.912 183.059 118.911 188.926 112.847C194.796 106.779 202.678 103.437 211.121 103.437C218.009 103.437 224.503 105.629 229.901 109.776C237.571 115.667 246.517 118.78 255.771 118.78H256.006C263.036 118.78 268.735 113.081 268.735 106.051V25.458H480.177C483.686 25.458 486.541 28.313 486.541 31.822V243.279H486.543Z" fill="#C13F3F"/>
</svg>
